<?xml version="1.0" encoding="UTF-8" standalone="no"?><svg xmlns="http://www.w3.org/2000/svg" xmlns:xlink="http://www.w3.org/1999/xlink" contentScriptType="application/ecmascript" contentStyleType="text/css" height="768px" preserveAspectRatio="none" style="width:7088px;height:768px;" version="1.1" viewBox="0 0 7088 768" width="7088px" zoomAndPan="magnify"><defs><filter height="300%" id="fp5ha0c" width="300%" x="-1" y="-1"><feGaussianBlur result="blurOut" stdDeviation="2.0"/><feColorMatrix in="blurOut" result="blurOut2" type="matrix" values="0 0 0 0 0 0 0 0 0 0 0 0 0 0 0 0 0 0 .4 0"/><feOffset dx="4.0" dy="4.0" in="blurOut2" result="blurOut3"/><feBlend in="SourceGraphic" in2="blurOut3" mode="normal"/></filter></defs><g><!--cluster com::edufuga::scala::entities::ServiceTypes--><polygon fill="#FFFFFF" filter="url(#fp5ha0c)" points="838,304.93,1147,304.93,1154,328.5394,1291,328.5394,1291,442.95,838,442.95,838,304.93" style="stroke: #000000; stroke-width: 2.0;"/><line style="stroke: #000000; stroke-width: 2.0;" x1="838" x2="1154" y1="328.5394" y2="328.5394"/><text fill="#000000" font-family="sans-serif" font-size="14" font-weight="bold" lengthAdjust="spacingAndGlyphs" textLength="303" x="842" y="321.4632">com::edufuga::scala::entities::ServiceTypes</text><!--cluster com::edufuga::scala::entities--><polygon fill="#FFFFFF" filter="url(#fp5ha0c)" points="1323,43.89,1529,43.89,1536,67.4994,6164,67.4994,6164,441.87,1323,441.87,1323,43.89" style="stroke: #000000; stroke-width: 2.0;"/><line style="stroke: #000000; stroke-width: 2.0;" x1="1323" x2="1536" y1="67.4994" y2="67.4994"/><text fill="#000000" font-family="sans-serif" font-size="14" font-weight="bold" lengthAdjust="spacingAndGlyphs" textLength="200" x="1327" y="60.4232">com::edufuga::scala::entities</text><!--cluster com::edufuga::scala::entities::ProductTypes--><polygon fill="#FFFFFF" filter="url(#fp5ha0c)" points="30,304.93,340,304.93,347,328.5394,674,328.5394,674,761,30,761,30,304.93" style="stroke: #000000; stroke-width: 2.0;"/><line style="stroke: #000000; stroke-width: 2.0;" x1="30" x2="347" y1="328.5394" y2="328.5394"/><text fill="#000000" font-family="sans-serif" font-size="14" font-weight="bold" lengthAdjust="spacingAndGlyphs" textLength="304" x="34" y="321.4632">com::edufuga::scala::entities::ProductTypes</text><!--cluster com::edufuga::scala::entities::PersonTypes--><polygon fill="#FFFFFF" filter="url(#fp5ha0c)" points="1054,491.95,1359,491.95,1366,515.5594,1471,515.5594,1471,761,1054,761,1054,491.95" style="stroke: #000000; stroke-width: 2.0;"/><line style="stroke: #000000; stroke-width: 2.0;" x1="1054" x2="1366" y1="515.5594" y2="515.5594"/><text fill="#000000" font-family="sans-serif" font-size="14" font-weight="bold" lengthAdjust="spacingAndGlyphs" textLength="299" x="1058" y="508.4832">com::edufuga::scala::entities::PersonTypes</text><!--cluster com::edufuga::scala::entities::EmployeeTypes--><polygon fill="#FFFFFF" filter="url(#fp5ha0c)" points="6196,304.93,6519,304.93,6526,328.5394,6529,328.5394,6529,442.95,6196,442.95,6196,304.93" style="stroke: #000000; stroke-width: 2.0;"/><line style="stroke: #000000; stroke-width: 2.0;" x1="6196" x2="6526" y1="328.5394" y2="328.5394"/><text fill="#000000" font-family="sans-serif" font-size="14" font-weight="bold" lengthAdjust="spacingAndGlyphs" textLength="317" x="6200" y="321.4632">com::edufuga::scala::entities::EmployeeTypes</text><!--cluster com::edufuga::scala::entities::DepartmentTypes--><polygon fill="#FFFFFF" filter="url(#fp5ha0c)" points="6569,304.93,6906,304.93,6913,328.5394,7058,328.5394,7058,442.95,6569,442.95,6569,304.93" style="stroke: #000000; stroke-width: 2.0;"/><line style="stroke: #000000; stroke-width: 2.0;" x1="6569" x2="6913" y1="328.5394" y2="328.5394"/><text fill="#000000" font-family="sans-serif" font-size="14" font-weight="bold" lengthAdjust="spacingAndGlyphs" textLength="331" x="6573" y="321.4632">com::edufuga::scala::entities::DepartmentTypes</text><!--class com::edufuga::scala::entities::ServiceTypes.ServiceName--><rect fill="#FEFECE" filter="url(#fp5ha0c)" height="70.0234" style="stroke: #A80036; stroke-width: 1.5;" width="185" x="861.5" y="348.93"/><ellipse cx="912.75" cy="369.0238" fill="#ADD1B2" rx="11" ry="11" style="stroke: #A80036; stroke-width: 1.0;"/><path d="M915.5156,364.8988 Q915.6719,364.68 915.8594,364.5706 Q916.0469,364.4613 916.2656,364.4613 Q916.6406,364.4613 916.875,364.7269 Q917.1094,364.9769 917.1094,365.5863 L917.1094,367.0394 Q917.1094,367.6488 916.875,367.9144 Q916.6406,368.18 916.2656,368.18 Q915.9219,368.18 915.7188,367.9769 Q915.5156,367.7894 915.4063,367.2738 Q915.3594,366.9144 915.1719,366.7269 Q914.8438,366.3519 914.2344,366.1331 Q913.625,365.9144 913,365.9144 Q912.2344,365.9144 911.5938,366.2425 Q910.9688,366.5706 910.4688,367.3206 Q909.9844,368.0706 909.9844,369.1019 L909.9844,370.1956 Q909.9844,371.43 910.875,372.2581 Q911.7656,373.0706 913.3594,373.0706 Q914.2969,373.0706 914.9531,372.8206 Q915.3438,372.6644 915.7656,372.2269 Q916.0313,371.9613 916.1719,371.8831 Q916.3281,371.805 916.5313,371.805 Q916.8594,371.805 917.1094,372.0706 Q917.375,372.3206 917.375,372.6644 Q917.375,373.0081 917.0313,373.4144 Q916.5313,373.9925 915.7344,374.3206 Q914.6563,374.7738 913.3594,374.7738 Q911.8438,374.7738 910.6406,374.1488 Q909.6563,373.6488 908.9688,372.5863 Q908.2813,371.5081 908.2813,370.2269 L908.2813,369.0706 Q908.2813,367.7425 908.8906,366.6019 Q909.5156,365.4456 910.6094,364.8363 Q911.7031,364.2113 912.9375,364.2113 Q913.6719,364.2113 914.3125,364.3831 Q914.9688,364.5394 915.5156,364.8988 Z "/><text fill="#000000" font-family="sans-serif" font-size="12" font-style="italic" lengthAdjust="spacingAndGlyphs" textLength="48" x="946.25" y="366.387">«object»</text><text fill="#000000" font-family="sans-serif" font-size="12" lengthAdjust="spacingAndGlyphs" textLength="74" x="933.25" y="381.4808">ServiceName</text><line style="stroke: #A80036; stroke-width: 1.5;" x1="862.5" x2="1045.5" y1="389.1175" y2="389.1175"/><line style="stroke: #A80036; stroke-width: 1.5;" x1="862.5" x2="1045.5" y1="397.1175" y2="397.1175"/><text fill="#000000" font-family="sans-serif" font-size="11" lengthAdjust="spacingAndGlyphs" textLength="173" x="867.5" y="412.5364">apply (value : String) : ServiceName</text><!--class com::edufuga::scala::entities::ServiceTypes.ServiceId--><rect fill="#FEFECE" filter="url(#fp5ha0c)" height="70.0234" style="stroke: #A80036; stroke-width: 1.5;" width="166" x="1082" y="348.93"/><ellipse cx="1135.75" cy="369.0238" fill="#ADD1B2" rx="11" ry="11" style="stroke: #A80036; stroke-width: 1.0;"/><path d="M1138.5156,364.8988 Q1138.6719,364.68 1138.8594,364.5706 Q1139.0469,364.4613 1139.2656,364.4613 Q1139.6406,364.4613 1139.875,364.7269 Q1140.1094,364.9769 1140.1094,365.5863 L1140.1094,367.0394 Q1140.1094,367.6488 1139.875,367.9144 Q1139.6406,368.18 1139.2656,368.18 Q1138.9219,368.18 1138.7188,367.9769 Q1138.5156,367.7894 1138.4063,367.2738 Q1138.3594,366.9144 1138.1719,366.7269 Q1137.8438,366.3519 1137.2344,366.1331 Q1136.625,365.9144 1136,365.9144 Q1135.2344,365.9144 1134.5938,366.2425 Q1133.9688,366.5706 1133.4688,367.3206 Q1132.9844,368.0706 1132.9844,369.1019 L1132.9844,370.1956 Q1132.9844,371.43 1133.875,372.2581 Q1134.7656,373.0706 1136.3594,373.0706 Q1137.2969,373.0706 1137.9531,372.8206 Q1138.3438,372.6644 1138.7656,372.2269 Q1139.0313,371.9613 1139.1719,371.8831 Q1139.3281,371.805 1139.5313,371.805 Q1139.8594,371.805 1140.1094,372.0706 Q1140.375,372.3206 1140.375,372.6644 Q1140.375,373.0081 1140.0313,373.4144 Q1139.5313,373.9925 1138.7344,374.3206 Q1137.6563,374.7738 1136.3594,374.7738 Q1134.8438,374.7738 1133.6406,374.1488 Q1132.6563,373.6488 1131.9688,372.5863 Q1131.2813,371.5081 1131.2813,370.2269 L1131.2813,369.0706 Q1131.2813,367.7425 1131.8906,366.6019 Q1132.5156,365.4456 1133.6094,364.8363 Q1134.7031,364.2113 1135.9375,364.2113 Q1136.6719,364.2113 1137.3125,364.3831 Q1137.9688,364.5394 1138.5156,364.8988 Z "/><text fill="#000000" font-family="sans-serif" font-size="12" font-style="italic" lengthAdjust="spacingAndGlyphs" textLength="48" x="1157.25" y="366.387">«object»</text><text fill="#000000" font-family="sans-serif" font-size="12" lengthAdjust="spacingAndGlyphs" textLength="50" x="1156.25" y="381.4808">ServiceId</text><line style="stroke: #A80036; stroke-width: 1.5;" x1="1083" x2="1247" y1="389.1175" y2="389.1175"/><line style="stroke: #A80036; stroke-width: 1.5;" x1="1083" x2="1247" y1="397.1175" y2="397.1175"/><text fill="#000000" font-family="sans-serif" font-size="11" lengthAdjust="spacingAndGlyphs" textLength="154" x="1088" y="412.5364">apply (value : String) : ServiceId</text><!--class com::edufuga::scala::entities.ServiceTypes--><rect fill="#FEFECE" filter="url(#fp5ha0c)" height="83.8594" style="stroke: #A80036; stroke-width: 1.5;" width="146" x="2128" y="114.48"/><ellipse cx="2161.45" cy="134.5738" fill="#ADD1B2" rx="11" ry="11" style="stroke: #A80036; stroke-width: 1.0;"/><path d="M2164.2156,130.4488 Q2164.3719,130.23 2164.5594,130.1206 Q2164.7469,130.0113 2164.9656,130.0113 Q2165.3406,130.0113 2165.575,130.2769 Q2165.8094,130.5269 2165.8094,131.1363 L2165.8094,132.5894 Q2165.8094,133.1988 2165.575,133.4644 Q2165.3406,133.73 2164.9656,133.73 Q2164.6219,133.73 2164.4188,133.5269 Q2164.2156,133.3394 2164.1063,132.8238 Q2164.0594,132.4644 2163.8719,132.2769 Q2163.5438,131.9019 2162.9344,131.6831 Q2162.325,131.4644 2161.7,131.4644 Q2160.9344,131.4644 2160.2938,131.7925 Q2159.6688,132.1206 2159.1688,132.8706 Q2158.6844,133.6206 2158.6844,134.6519 L2158.6844,135.7456 Q2158.6844,136.98 2159.575,137.8081 Q2160.4656,138.6206 2162.0594,138.6206 Q2162.9969,138.6206 2163.6531,138.3706 Q2164.0438,138.2144 2164.4656,137.7769 Q2164.7313,137.5113 2164.8719,137.4331 Q2165.0281,137.355 2165.2313,137.355 Q2165.5594,137.355 2165.8094,137.6206 Q2166.075,137.8706 2166.075,138.2144 Q2166.075,138.5581 2165.7313,138.9644 Q2165.2313,139.5425 2164.4344,139.8706 Q2163.3563,140.3238 2162.0594,140.3238 Q2160.5438,140.3238 2159.3406,139.6988 Q2158.3563,139.1988 2157.6688,138.1363 Q2156.9813,137.0581 2156.9813,135.7769 L2156.9813,134.6206 Q2156.9813,133.2925 2157.5906,132.1519 Q2158.2156,130.9956 2159.3094,130.3863 Q2160.4031,129.7613 2161.6375,129.7613 Q2162.3719,129.7613 2163.0125,129.9331 Q2163.6688,130.0894 2164.2156,130.4488 Z "/><text fill="#000000" font-family="sans-serif" font-size="12" font-style="italic" lengthAdjust="spacingAndGlyphs" textLength="48" x="2192.05" y="131.937">«object»</text><text fill="#000000" font-family="sans-serif" font-size="12" lengthAdjust="spacingAndGlyphs" textLength="73" x="2179.55" y="147.0308">ServiceTypes</text><line style="stroke: #A80036; stroke-width: 1.5;" x1="2129" x2="2273" y1="154.6675" y2="154.6675"/><text fill="#000000" font-family="sans-serif" font-size="11" lengthAdjust="spacingAndGlyphs" textLength="115" x="2134" y="170.0864">«type»ServiceId : String</text><text fill="#000000" font-family="sans-serif" font-size="11" lengthAdjust="spacingAndGlyphs" textLength="134" x="2134" y="183.9224">«type»ServiceName : String</text><line style="stroke: #A80036; stroke-width: 1.5;" x1="2129" x2="2273" y1="190.3394" y2="190.3394"/><!--class com::edufuga::scala::entities.Service--><rect fill="#FEFECE" filter="url(#fp5ha0c)" height="70.0234" style="stroke: #A80036; stroke-width: 1.5;" width="686" x="4571" y="348.93"/><ellipse cx="4877.75" cy="369.0238" fill="#ADD1B2" rx="11" ry="11" style="stroke: #A80036; stroke-width: 1.0;"/><path d="M4880.5156,364.8988 Q4880.6719,364.68 4880.8594,364.5706 Q4881.0469,364.4613 4881.2656,364.4613 Q4881.6406,364.4613 4881.875,364.7269 Q4882.1094,364.9769 4882.1094,365.5863 L4882.1094,367.0394 Q4882.1094,367.6488 4881.875,367.9144 Q4881.6406,368.18 4881.2656,368.18 Q4880.9219,368.18 4880.7188,367.9769 Q4880.5156,367.7894 4880.4063,367.2738 Q4880.3594,366.9144 4880.1719,366.7269 Q4879.8438,366.3519 4879.2344,366.1331 Q4878.625,365.9144 4878,365.9144 Q4877.2344,365.9144 4876.5938,366.2425 Q4875.9688,366.5706 4875.4688,367.3206 Q4874.9844,368.0706 4874.9844,369.1019 L4874.9844,370.1956 Q4874.9844,371.43 4875.875,372.2581 Q4876.7656,373.0706 4878.3594,373.0706 Q4879.2969,373.0706 4879.9531,372.8206 Q4880.3438,372.6644 4880.7656,372.2269 Q4881.0313,371.9613 4881.1719,371.8831 Q4881.3281,371.805 4881.5313,371.805 Q4881.8594,371.805 4882.1094,372.0706 Q4882.375,372.3206 4882.375,372.6644 Q4882.375,373.0081 4882.0313,373.4144 Q4881.5313,373.9925 4880.7344,374.3206 Q4879.6563,374.7738 4878.3594,374.7738 Q4876.8438,374.7738 4875.6406,374.1488 Q4874.6563,373.6488 4873.9688,372.5863 Q4873.2813,371.5081 4873.2813,370.2269 L4873.2813,369.0706 Q4873.2813,367.7425 4873.8906,366.6019 Q4874.5156,365.4456 4875.6094,364.8363 Q4876.7031,364.2113 4877.9375,364.2113 Q4878.6719,364.2113 4879.3125,364.3831 Q4879.9688,364.5394 4880.5156,364.8988 Z "/><text fill="#000000" font-family="sans-serif" font-size="12" font-style="italic" lengthAdjust="spacingAndGlyphs" textLength="68" x="4896.25" y="366.387">«caseclass»</text><text fill="#000000" font-family="sans-serif" font-size="12" lengthAdjust="spacingAndGlyphs" textLength="40" x="4910.25" y="381.4808">Service</text><line style="stroke: #A80036; stroke-width: 1.5;" x1="4572" x2="5256" y1="389.1175" y2="389.1175"/><line style="stroke: #A80036; stroke-width: 1.5;" x1="4572" x2="5256" y1="397.1175" y2="397.1175"/><text fill="#000000" font-family="sans-serif" font-size="11" lengthAdjust="spacingAndGlyphs" textLength="674" x="4577" y="412.5364">«ctor»Service (id : ServiceId,  serviceName : ServiceName,  products : List &lt;ProductId&gt;,  productManager : ProductManager,  price : Money)</text><!--class com::edufuga::scala::entities.ProductTypes--><rect fill="#FEFECE" filter="url(#fp5ha0c)" height="153.0391" style="stroke: #A80036; stroke-width: 1.5;" width="157" x="1776.5" y="79.89"/><ellipse cx="1814" cy="99.9837" fill="#ADD1B2" rx="11" ry="11" style="stroke: #A80036; stroke-width: 1.0;"/><path d="M1816.7656,95.8587 Q1816.9219,95.64 1817.1094,95.5306 Q1817.2969,95.4212 1817.5156,95.4212 Q1817.8906,95.4212 1818.125,95.6869 Q1818.3594,95.9369 1818.3594,96.5462 L1818.3594,97.9994 Q1818.3594,98.6087 1818.125,98.8744 Q1817.8906,99.14 1817.5156,99.14 Q1817.1719,99.14 1816.9688,98.9369 Q1816.7656,98.7494 1816.6563,98.2337 Q1816.6094,97.8744 1816.4219,97.6869 Q1816.0938,97.3119 1815.4844,97.0931 Q1814.875,96.8744 1814.25,96.8744 Q1813.4844,96.8744 1812.8438,97.2025 Q1812.2188,97.5306 1811.7188,98.2806 Q1811.2344,99.0306 1811.2344,100.0619 L1811.2344,101.1556 Q1811.2344,102.39 1812.125,103.2181 Q1813.0156,104.0306 1814.6094,104.0306 Q1815.5469,104.0306 1816.2031,103.7806 Q1816.5938,103.6244 1817.0156,103.1869 Q1817.2813,102.9212 1817.4219,102.8431 Q1817.5781,102.765 1817.7813,102.765 Q1818.1094,102.765 1818.3594,103.0306 Q1818.625,103.2806 1818.625,103.6244 Q1818.625,103.9681 1818.2813,104.3744 Q1817.7813,104.9525 1816.9844,105.2806 Q1815.9063,105.7337 1814.6094,105.7337 Q1813.0938,105.7337 1811.8906,105.1087 Q1810.9063,104.6087 1810.2188,103.5462 Q1809.5313,102.4681 1809.5313,101.1869 L1809.5313,100.0306 Q1809.5313,98.7025 1810.1406,97.5619 Q1810.7656,96.4056 1811.8594,95.7962 Q1812.9531,95.1712 1814.1875,95.1712 Q1814.9219,95.1712 1815.5625,95.3431 Q1816.2188,95.4994 1816.7656,95.8587 Z "/><text fill="#000000" font-family="sans-serif" font-size="12" font-style="italic" lengthAdjust="spacingAndGlyphs" textLength="48" x="1846.5" y="97.347">«object»</text><text fill="#000000" font-family="sans-serif" font-size="12" lengthAdjust="spacingAndGlyphs" textLength="75" x="1833" y="112.4408">ProductTypes</text><line style="stroke: #A80036; stroke-width: 1.5;" x1="1777.5" x2="1932.5" y1="120.0775" y2="120.0775"/><text fill="#000000" font-family="sans-serif" font-size="11" lengthAdjust="spacingAndGlyphs" textLength="115" x="1782.5" y="135.4964">«type»ProductId : String</text><text fill="#000000" font-family="sans-serif" font-size="11" lengthAdjust="spacingAndGlyphs" textLength="134" x="1782.5" y="149.3324">«type»ProductName : String</text><text fill="#000000" font-family="sans-serif" font-size="11" lengthAdjust="spacingAndGlyphs" textLength="145" x="1782.5" y="163.1683">«type»ProductManager : Email</text><text fill="#000000" font-family="sans-serif" font-size="11" lengthAdjust="spacingAndGlyphs" textLength="83" x="1782.5" y="177.0043">«type»Height : Int</text><text fill="#000000" font-family="sans-serif" font-size="11" lengthAdjust="spacingAndGlyphs" textLength="80" x="1782.5" y="190.8402">«type»Width : Int</text><text fill="#000000" font-family="sans-serif" font-size="11" lengthAdjust="spacingAndGlyphs" textLength="86" x="1782.5" y="204.6761">«type»Weight : Int</text><text fill="#000000" font-family="sans-serif" font-size="11" lengthAdjust="spacingAndGlyphs" textLength="81" x="1782.5" y="218.5121">«type»Depth : Int</text><line style="stroke: #A80036; stroke-width: 1.5;" x1="1777.5" x2="1932.5" y1="224.9291" y2="224.9291"/><!--class com::edufuga::scala::entities.Product--><rect fill="#FEFECE" filter="url(#fp5ha0c)" height="70.0234" style="stroke: #A80036; stroke-width: 1.5;" width="855" x="5292.5" y="348.93"/><ellipse cx="5683.75" cy="369.0238" fill="#ADD1B2" rx="11" ry="11" style="stroke: #A80036; stroke-width: 1.0;"/><path d="M5686.5156,364.8988 Q5686.6719,364.68 5686.8594,364.5706 Q5687.0469,364.4613 5687.2656,364.4613 Q5687.6406,364.4613 5687.875,364.7269 Q5688.1094,364.9769 5688.1094,365.5863 L5688.1094,367.0394 Q5688.1094,367.6488 5687.875,367.9144 Q5687.6406,368.18 5687.2656,368.18 Q5686.9219,368.18 5686.7188,367.9769 Q5686.5156,367.7894 5686.4063,367.2738 Q5686.3594,366.9144 5686.1719,366.7269 Q5685.8438,366.3519 5685.2344,366.1331 Q5684.625,365.9144 5684,365.9144 Q5683.2344,365.9144 5682.5938,366.2425 Q5681.9688,366.5706 5681.4688,367.3206 Q5680.9844,368.0706 5680.9844,369.1019 L5680.9844,370.1956 Q5680.9844,371.43 5681.875,372.2581 Q5682.7656,373.0706 5684.3594,373.0706 Q5685.2969,373.0706 5685.9531,372.8206 Q5686.3438,372.6644 5686.7656,372.2269 Q5687.0313,371.9613 5687.1719,371.8831 Q5687.3281,371.805 5687.5313,371.805 Q5687.8594,371.805 5688.1094,372.0706 Q5688.375,372.3206 5688.375,372.6644 Q5688.375,373.0081 5688.0313,373.4144 Q5687.5313,373.9925 5686.7344,374.3206 Q5685.6563,374.7738 5684.3594,374.7738 Q5682.8438,374.7738 5681.6406,374.1488 Q5680.6563,373.6488 5679.9688,372.5863 Q5679.2813,371.5081 5679.2813,370.2269 L5679.2813,369.0706 Q5679.2813,367.7425 5679.8906,366.6019 Q5680.5156,365.4456 5681.6094,364.8363 Q5682.7031,364.2113 5683.9375,364.2113 Q5684.6719,364.2113 5685.3125,364.3831 Q5685.9688,364.5394 5686.5156,364.8988 Z "/><text fill="#000000" font-family="sans-serif" font-size="12" font-style="italic" lengthAdjust="spacingAndGlyphs" textLength="68" x="5702.25" y="366.387">«caseclass»</text><text fill="#000000" font-family="sans-serif" font-size="12" lengthAdjust="spacingAndGlyphs" textLength="42" x="5715.25" y="381.4808">Product</text><line style="stroke: #A80036; stroke-width: 1.5;" x1="5293.5" x2="6146.5" y1="389.1175" y2="389.1175"/><line style="stroke: #A80036; stroke-width: 1.5;" x1="5293.5" x2="6146.5" y1="397.1175" y2="397.1175"/><text fill="#000000" font-family="sans-serif" font-size="11" lengthAdjust="spacingAndGlyphs" textLength="843" x="5298.5" y="412.5364">«ctor»Product (id : ProductId,  productName : ProductName,  height : Height,  width : Width,  depth : Depth,  weight : Weight,  productManager : ProductManager,  price : Money)</text><!--class com::edufuga::scala::entities.PersonTypes--><rect fill="#FEFECE" filter="url(#fp5ha0c)" height="111.5313" style="stroke: #A80036; stroke-width: 1.5;" width="124" x="1969" y="100.64"/><ellipse cx="1992.55" cy="120.7337" fill="#ADD1B2" rx="11" ry="11" style="stroke: #A80036; stroke-width: 1.0;"/><path d="M1995.3156,116.6087 Q1995.4719,116.39 1995.6594,116.2806 Q1995.8469,116.1712 1996.0656,116.1712 Q1996.4406,116.1712 1996.675,116.4369 Q1996.9094,116.6869 1996.9094,117.2962 L1996.9094,118.7494 Q1996.9094,119.3587 1996.675,119.6244 Q1996.4406,119.89 1996.0656,119.89 Q1995.7219,119.89 1995.5188,119.6869 Q1995.3156,119.4994 1995.2063,118.9837 Q1995.1594,118.6244 1994.9719,118.4369 Q1994.6438,118.0619 1994.0344,117.8431 Q1993.425,117.6244 1992.8,117.6244 Q1992.0344,117.6244 1991.3938,117.9525 Q1990.7688,118.2806 1990.2688,119.0306 Q1989.7844,119.7806 1989.7844,120.8119 L1989.7844,121.9056 Q1989.7844,123.14 1990.675,123.9681 Q1991.5656,124.7806 1993.1594,124.7806 Q1994.0969,124.7806 1994.7531,124.5306 Q1995.1438,124.3744 1995.5656,123.9369 Q1995.8313,123.6712 1995.9719,123.5931 Q1996.1281,123.515 1996.3313,123.515 Q1996.6594,123.515 1996.9094,123.7806 Q1997.175,124.0306 1997.175,124.3744 Q1997.175,124.7181 1996.8313,125.1244 Q1996.3313,125.7025 1995.5344,126.0306 Q1994.4563,126.4837 1993.1594,126.4837 Q1991.6438,126.4837 1990.4406,125.8587 Q1989.4563,125.3587 1988.7688,124.2962 Q1988.0813,123.2181 1988.0813,121.9369 L1988.0813,120.7806 Q1988.0813,119.4525 1988.6906,118.3119 Q1989.3156,117.1556 1990.4094,116.5462 Q1991.5031,115.9212 1992.7375,115.9212 Q1993.4719,115.9212 1994.1125,116.0931 Q1994.7688,116.2494 1995.3156,116.6087 Z "/><text fill="#000000" font-family="sans-serif" font-size="12" font-style="italic" lengthAdjust="spacingAndGlyphs" textLength="48" x="2020.95" y="118.097">«object»</text><text fill="#000000" font-family="sans-serif" font-size="12" lengthAdjust="spacingAndGlyphs" textLength="73" x="2008.45" y="133.1908">PersonTypes</text><line style="stroke: #A80036; stroke-width: 1.5;" x1="1970" x2="2092" y1="140.8275" y2="140.8275"/><text fill="#000000" font-family="sans-serif" font-size="11" lengthAdjust="spacingAndGlyphs" textLength="94" x="1975" y="156.2464">«type»Email : String</text><text fill="#000000" font-family="sans-serif" font-size="11" lengthAdjust="spacingAndGlyphs" textLength="97" x="1975" y="170.0824">«type»Name : String</text><text fill="#000000" font-family="sans-serif" font-size="11" lengthAdjust="spacingAndGlyphs" textLength="112" x="1975" y="183.9183">«type»Address : String</text><text fill="#000000" font-family="sans-serif" font-size="11" lengthAdjust="spacingAndGlyphs" textLength="100" x="1975" y="197.7543">«type»Phone : String</text><line style="stroke: #A80036; stroke-width: 1.5;" x1="1970" x2="2092" y1="204.1713" y2="204.1713"/><!--class com::edufuga::scala::entities.Organisation--><rect fill="#FEFECE" filter="url(#fp5ha0c)" height="70.0234" style="stroke: #A80036; stroke-width: 1.5;" width="271" x="2309.5" y="121.4"/><ellipse cx="2405.25" cy="141.4937" fill="#ADD1B2" rx="11" ry="11" style="stroke: #A80036; stroke-width: 1.0;"/><path d="M2408.0156,137.3687 Q2408.1719,137.15 2408.3594,137.0406 Q2408.5469,136.9312 2408.7656,136.9312 Q2409.1406,136.9312 2409.375,137.1969 Q2409.6094,137.4469 2409.6094,138.0562 L2409.6094,139.5094 Q2409.6094,140.1187 2409.375,140.3844 Q2409.1406,140.65 2408.7656,140.65 Q2408.4219,140.65 2408.2188,140.4469 Q2408.0156,140.2594 2407.9063,139.7437 Q2407.8594,139.3844 2407.6719,139.1969 Q2407.3438,138.8219 2406.7344,138.6031 Q2406.125,138.3844 2405.5,138.3844 Q2404.7344,138.3844 2404.0938,138.7125 Q2403.4688,139.0406 2402.9688,139.7906 Q2402.4844,140.5406 2402.4844,141.5719 L2402.4844,142.6656 Q2402.4844,143.9 2403.375,144.7281 Q2404.2656,145.5406 2405.8594,145.5406 Q2406.7969,145.5406 2407.4531,145.2906 Q2407.8438,145.1344 2408.2656,144.6969 Q2408.5313,144.4312 2408.6719,144.3531 Q2408.8281,144.275 2409.0313,144.275 Q2409.3594,144.275 2409.6094,144.5406 Q2409.875,144.7906 2409.875,145.1344 Q2409.875,145.4781 2409.5313,145.8844 Q2409.0313,146.4625 2408.2344,146.7906 Q2407.1563,147.2437 2405.8594,147.2437 Q2404.3438,147.2437 2403.1406,146.6187 Q2402.1563,146.1187 2401.4688,145.0562 Q2400.7813,143.9781 2400.7813,142.6969 L2400.7813,141.5406 Q2400.7813,140.2125 2401.3906,139.0719 Q2402.0156,137.9156 2403.1094,137.3062 Q2404.2031,136.6812 2405.4375,136.6812 Q2406.1719,136.6812 2406.8125,136.8531 Q2407.4688,137.0094 2408.0156,137.3687 Z "/><text fill="#000000" font-family="sans-serif" font-size="12" font-style="italic" lengthAdjust="spacingAndGlyphs" textLength="68" x="2427.25" y="138.857">«caseclass»</text><text fill="#000000" font-family="sans-serif" font-size="12" lengthAdjust="spacingAndGlyphs" textLength="71" x="2425.75" y="153.9508">Organisation</text><line style="stroke: #A80036; stroke-width: 1.5;" x1="2310.5" x2="2579.5" y1="161.5875" y2="161.5875"/><line style="stroke: #A80036; stroke-width: 1.5;" x1="2310.5" x2="2579.5" y1="169.5875" y2="169.5875"/><text fill="#000000" font-family="sans-serif" font-size="11" lengthAdjust="spacingAndGlyphs" textLength="259" x="2315.5" y="185.0064">«ctor»Organisation (departments : List &lt;Department&gt;)</text><!--class com::edufuga::scala::entities.$Money--><rect fill="#FEFECE" filter="url(#fp5ha0c)" height="83.8594" style="stroke: #A80036; stroke-width: 1.5;" width="375" x="2394.5" y="342.01"/><ellipse cx="2555.75" cy="362.1038" fill="#ADD1B2" rx="11" ry="11" style="stroke: #A80036; stroke-width: 1.0;"/><path d="M2558.5156,357.9788 Q2558.6719,357.76 2558.8594,357.6506 Q2559.0469,357.5413 2559.2656,357.5413 Q2559.6406,357.5413 2559.875,357.8069 Q2560.1094,358.0569 2560.1094,358.6663 L2560.1094,360.1194 Q2560.1094,360.7288 2559.875,360.9944 Q2559.6406,361.26 2559.2656,361.26 Q2558.9219,361.26 2558.7188,361.0569 Q2558.5156,360.8694 2558.4063,360.3538 Q2558.3594,359.9944 2558.1719,359.8069 Q2557.8438,359.4319 2557.2344,359.2131 Q2556.625,358.9944 2556,358.9944 Q2555.2344,358.9944 2554.5938,359.3225 Q2553.9688,359.6506 2553.4688,360.4006 Q2552.9844,361.1506 2552.9844,362.1819 L2552.9844,363.2756 Q2552.9844,364.51 2553.875,365.3381 Q2554.7656,366.1506 2556.3594,366.1506 Q2557.2969,366.1506 2557.9531,365.9006 Q2558.3438,365.7444 2558.7656,365.3069 Q2559.0313,365.0413 2559.1719,364.9631 Q2559.3281,364.885 2559.5313,364.885 Q2559.8594,364.885 2560.1094,365.1506 Q2560.375,365.4006 2560.375,365.7444 Q2560.375,366.0881 2560.0313,366.4944 Q2559.5313,367.0725 2558.7344,367.4006 Q2557.6563,367.8538 2556.3594,367.8538 Q2554.8438,367.8538 2553.6406,367.2288 Q2552.6563,366.7288 2551.9688,365.6663 Q2551.2813,364.5881 2551.2813,363.3069 L2551.2813,362.1506 Q2551.2813,360.8225 2551.8906,359.6819 Q2552.5156,358.5256 2553.6094,357.9163 Q2554.7031,357.2913 2555.9375,357.2913 Q2556.6719,357.2913 2557.3125,357.4631 Q2557.9688,357.6194 2558.5156,357.9788 Z "/><text fill="#000000" font-family="sans-serif" font-size="12" font-style="italic" lengthAdjust="spacingAndGlyphs" textLength="48" x="2574.25" y="359.467">«object»</text><text fill="#000000" font-family="sans-serif" font-size="12" lengthAdjust="spacingAndGlyphs" textLength="42" x="2577.25" y="374.5608">$Money</text><line style="stroke: #A80036; stroke-width: 1.5;" x1="2395.5" x2="2768.5" y1="382.1975" y2="382.1975"/><line style="stroke: #A80036; stroke-width: 1.5;" x1="2395.5" x2="2768.5" y1="390.1975" y2="390.1975"/><text fill="#000000" font-family="sans-serif" font-size="11" lengthAdjust="spacingAndGlyphs" textLength="363" x="2400.5" y="405.6164">mkMoney (textualValue : String,  textualCurrency : String) : Option &lt;Money&gt;</text><text fill="#000000" font-family="sans-serif" font-size="11" lengthAdjust="spacingAndGlyphs" textLength="162" x="2400.5" y="419.4524">main (args : Array &lt;String&gt;) : Unit</text><!--class com::edufuga::scala::entities.Money--><rect fill="#FEFECE" filter="url(#fp5ha0c)" height="70.0234" style="stroke: #A80036; stroke-width: 1.5;" width="251" x="2615.5" y="121.4"/><ellipse cx="2704.75" cy="141.4937" fill="#ADD1B2" rx="11" ry="11" style="stroke: #A80036; stroke-width: 1.0;"/><path d="M2707.5156,137.3687 Q2707.6719,137.15 2707.8594,137.0406 Q2708.0469,136.9312 2708.2656,136.9312 Q2708.6406,136.9312 2708.875,137.1969 Q2709.1094,137.4469 2709.1094,138.0562 L2709.1094,139.5094 Q2709.1094,140.1187 2708.875,140.3844 Q2708.6406,140.65 2708.2656,140.65 Q2707.9219,140.65 2707.7188,140.4469 Q2707.5156,140.2594 2707.4063,139.7437 Q2707.3594,139.3844 2707.1719,139.1969 Q2706.8438,138.8219 2706.2344,138.6031 Q2705.625,138.3844 2705,138.3844 Q2704.2344,138.3844 2703.5938,138.7125 Q2702.9688,139.0406 2702.4688,139.7906 Q2701.9844,140.5406 2701.9844,141.5719 L2701.9844,142.6656 Q2701.9844,143.9 2702.875,144.7281 Q2703.7656,145.5406 2705.3594,145.5406 Q2706.2969,145.5406 2706.9531,145.2906 Q2707.3438,145.1344 2707.7656,144.6969 Q2708.0313,144.4312 2708.1719,144.3531 Q2708.3281,144.275 2708.5313,144.275 Q2708.8594,144.275 2709.1094,144.5406 Q2709.375,144.7906 2709.375,145.1344 Q2709.375,145.4781 2709.0313,145.8844 Q2708.5313,146.4625 2707.7344,146.7906 Q2706.6563,147.2437 2705.3594,147.2437 Q2703.8438,147.2437 2702.6406,146.6187 Q2701.6563,146.1187 2700.9688,145.0562 Q2700.2813,143.9781 2700.2813,142.6969 L2700.2813,141.5406 Q2700.2813,140.2125 2700.8906,139.0719 Q2701.5156,137.9156 2702.6094,137.3062 Q2703.7031,136.6812 2704.9375,136.6812 Q2705.6719,136.6812 2706.3125,136.8531 Q2706.9688,137.0094 2707.5156,137.3687 Z "/><text fill="#000000" font-family="sans-serif" font-size="12" font-style="italic" lengthAdjust="spacingAndGlyphs" textLength="68" x="2723.25" y="138.857">«caseclass»</text><text fill="#000000" font-family="sans-serif" font-size="12" lengthAdjust="spacingAndGlyphs" textLength="35" x="2739.75" y="153.9508">Money</text><line style="stroke: #A80036; stroke-width: 1.5;" x1="2616.5" x2="2865.5" y1="161.5875" y2="161.5875"/><line style="stroke: #A80036; stroke-width: 1.5;" x1="2616.5" x2="2865.5" y1="169.5875" y2="169.5875"/><text fill="#000000" font-family="sans-serif" font-size="11" lengthAdjust="spacingAndGlyphs" textLength="239" x="2621.5" y="185.0064">«ctor»Money (value : Float,  currency : Currency)</text><!--class com::edufuga::scala::entities.Manager--><rect fill="#FEFECE" filter="url(#fp5ha0c)" height="70.0234" style="stroke: #A80036; stroke-width: 1.5;" width="402" x="1339" y="121.4"/><ellipse cx="1503.75" cy="141.4937" fill="#ADD1B2" rx="11" ry="11" style="stroke: #A80036; stroke-width: 1.0;"/><path d="M1506.5156,137.3687 Q1506.6719,137.15 1506.8594,137.0406 Q1507.0469,136.9312 1507.2656,136.9312 Q1507.6406,136.9312 1507.875,137.1969 Q1508.1094,137.4469 1508.1094,138.0562 L1508.1094,139.5094 Q1508.1094,140.1187 1507.875,140.3844 Q1507.6406,140.65 1507.2656,140.65 Q1506.9219,140.65 1506.7188,140.4469 Q1506.5156,140.2594 1506.4063,139.7437 Q1506.3594,139.3844 1506.1719,139.1969 Q1505.8438,138.8219 1505.2344,138.6031 Q1504.625,138.3844 1504,138.3844 Q1503.2344,138.3844 1502.5938,138.7125 Q1501.9688,139.0406 1501.4688,139.7906 Q1500.9844,140.5406 1500.9844,141.5719 L1500.9844,142.6656 Q1500.9844,143.9 1501.875,144.7281 Q1502.7656,145.5406 1504.3594,145.5406 Q1505.2969,145.5406 1505.9531,145.2906 Q1506.3438,145.1344 1506.7656,144.6969 Q1507.0313,144.4312 1507.1719,144.3531 Q1507.3281,144.275 1507.5313,144.275 Q1507.8594,144.275 1508.1094,144.5406 Q1508.375,144.7906 1508.375,145.1344 Q1508.375,145.4781 1508.0313,145.8844 Q1507.5313,146.4625 1506.7344,146.7906 Q1505.6563,147.2437 1504.3594,147.2437 Q1502.8438,147.2437 1501.6406,146.6187 Q1500.6563,146.1187 1499.9688,145.0562 Q1499.2813,143.9781 1499.2813,142.6969 L1499.2813,141.5406 Q1499.2813,140.2125 1499.8906,139.0719 Q1500.5156,137.9156 1501.6094,137.3062 Q1502.7031,136.6812 1503.9375,136.6812 Q1504.6719,136.6812 1505.3125,136.8531 Q1505.9688,137.0094 1506.5156,137.3687 Z "/><text fill="#000000" font-family="sans-serif" font-size="12" font-style="italic" lengthAdjust="spacingAndGlyphs" textLength="68" x="1522.25" y="138.857">«caseclass»</text><text fill="#000000" font-family="sans-serif" font-size="12" lengthAdjust="spacingAndGlyphs" textLength="48" x="1532.25" y="153.9508">Manager</text><line style="stroke: #A80036; stroke-width: 1.5;" x1="1340" x2="1740" y1="161.5875" y2="161.5875"/><line style="stroke: #A80036; stroke-width: 1.5;" x1="1340" x2="1740" y1="169.5875" y2="169.5875"/><text fill="#000000" font-family="sans-serif" font-size="11" lengthAdjust="spacingAndGlyphs" textLength="390" x="1345" y="185.0064">«ctor»Manager (email : Email,  name : Name,  address : Address,  phone : Phone)</text><!--class com::edufuga::scala::entities.Identifiable--><rect fill="#FEFECE" filter="url(#fp5ha0c)" height="70.0234" style="stroke: #A80036; stroke-width: 1.5;" width="115" x="4379.5" y="121.4"/><ellipse cx="4394.5" cy="141.4937" fill="#A9DCDF" rx="11" ry="11" style="stroke: #A80036; stroke-width: 1.0;"/><path d="M4396.6875,143.2594 L4392.5469,143.2594 L4392.125,144.2906 L4392.5469,144.2906 Q4393.1563,144.2906 4393.4219,144.525 Q4393.6875,144.7594 4393.6875,145.15 Q4393.6875,145.525 4393.4219,145.7594 Q4393.1563,145.9937 4392.5469,145.9937 L4390.25,145.9937 Q4389.6406,145.9937 4389.3906,145.7594 Q4389.125,145.525 4389.125,145.1344 Q4389.125,144.7594 4389.4063,144.525 Q4389.6719,144.275 4390.2969,144.2906 L4392.9688,137.6344 L4391.8594,137.6344 Q4391.25,137.6344 4390.9844,137.4 Q4390.7188,137.1656 4390.7188,136.775 Q4390.7188,136.4 4390.9844,136.1656 Q4391.25,135.9312 4391.8594,135.9312 L4395.5313,135.9312 L4398.9219,144.2906 Q4399.5156,144.2906 4399.7031,144.4312 Q4400.0938,144.6969 4400.0938,145.15 Q4400.0938,145.525 4399.8281,145.7594 Q4399.5781,145.9937 4398.9688,145.9937 L4396.6719,145.9937 Q4396.0625,145.9937 4395.7969,145.7594 Q4395.5313,145.525 4395.5313,145.1344 Q4395.5313,144.7594 4395.7969,144.525 Q4396.0625,144.2906 4396.6719,144.2906 L4397.0938,144.2906 L4396.6875,143.2594 Z M4395.9688,141.5562 L4394.6094,138.1812 L4393.2344,141.5562 L4395.9688,141.5562 Z "/><text fill="#000000" font-family="sans-serif" font-size="12" font-style="italic" lengthAdjust="spacingAndGlyphs" textLength="34" x="4422.5" y="138.857">«trait»</text><text fill="#000000" font-family="sans-serif" font-size="12" font-style="italic" lengthAdjust="spacingAndGlyphs" textLength="62" x="4408.5" y="153.9508">Identifiable</text><rect fill="#FFFFFF" height="17.0938" style="stroke: #000000; stroke-width: 1.0; stroke-dasharray: 2.0,2.0;" width="19" x="4478.5" y="118.4"/><text fill="#000000" font-family="sans-serif" font-size="12" font-style="italic" lengthAdjust="spacingAndGlyphs" textLength="11" x="4482.5" y="131.857">Id</text><line style="stroke: #A80036; stroke-width: 1.5;" x1="4380.5" x2="4493.5" y1="161.5875" y2="161.5875"/><text fill="#000000" font-family="sans-serif" font-size="11" lengthAdjust="spacingAndGlyphs" textLength="28" x="4385.5" y="177.0064">id  : Id</text><line style="stroke: #A80036; stroke-width: 1.5;" x1="4380.5" x2="4493.5" y1="183.4234" y2="183.4234"/><!--class com::edufuga::scala::entities.FullOrganisation--><rect fill="#FEFECE" filter="url(#fp5ha0c)" height="70.0234" style="stroke: #A80036; stroke-width: 1.5;" width="303" x="1338.5" y="348.93"/><ellipse cx="1440.25" cy="369.0238" fill="#ADD1B2" rx="11" ry="11" style="stroke: #A80036; stroke-width: 1.0;"/><path d="M1443.0156,364.8988 Q1443.1719,364.68 1443.3594,364.5706 Q1443.5469,364.4613 1443.7656,364.4613 Q1444.1406,364.4613 1444.375,364.7269 Q1444.6094,364.9769 1444.6094,365.5863 L1444.6094,367.0394 Q1444.6094,367.6488 1444.375,367.9144 Q1444.1406,368.18 1443.7656,368.18 Q1443.4219,368.18 1443.2188,367.9769 Q1443.0156,367.7894 1442.9063,367.2738 Q1442.8594,366.9144 1442.6719,366.7269 Q1442.3438,366.3519 1441.7344,366.1331 Q1441.125,365.9144 1440.5,365.9144 Q1439.7344,365.9144 1439.0938,366.2425 Q1438.4688,366.5706 1437.9688,367.3206 Q1437.4844,368.0706 1437.4844,369.1019 L1437.4844,370.1956 Q1437.4844,371.43 1438.375,372.2581 Q1439.2656,373.0706 1440.8594,373.0706 Q1441.7969,373.0706 1442.4531,372.8206 Q1442.8438,372.6644 1443.2656,372.2269 Q1443.5313,371.9613 1443.6719,371.8831 Q1443.8281,371.805 1444.0313,371.805 Q1444.3594,371.805 1444.6094,372.0706 Q1444.875,372.3206 1444.875,372.6644 Q1444.875,373.0081 1444.5313,373.4144 Q1444.0313,373.9925 1443.2344,374.3206 Q1442.1563,374.7738 1440.8594,374.7738 Q1439.3438,374.7738 1438.1406,374.1488 Q1437.1563,373.6488 1436.4688,372.5863 Q1435.7813,371.5081 1435.7813,370.2269 L1435.7813,369.0706 Q1435.7813,367.7425 1436.3906,366.6019 Q1437.0156,365.4456 1438.1094,364.8363 Q1439.2031,364.2113 1440.4375,364.2113 Q1441.1719,364.2113 1441.8125,364.3831 Q1442.4688,364.5394 1443.0156,364.8988 Z "/><text fill="#000000" font-family="sans-serif" font-size="12" font-style="italic" lengthAdjust="spacingAndGlyphs" textLength="68" x="1472.25" y="366.387">«caseclass»</text><text fill="#000000" font-family="sans-serif" font-size="12" lengthAdjust="spacingAndGlyphs" textLength="91" x="1460.75" y="381.4808">FullOrganisation</text><line style="stroke: #A80036; stroke-width: 1.5;" x1="1339.5" x2="1640.5" y1="389.1175" y2="389.1175"/><line style="stroke: #A80036; stroke-width: 1.5;" x1="1339.5" x2="1640.5" y1="397.1175" y2="397.1175"/><text fill="#000000" font-family="sans-serif" font-size="11" lengthAdjust="spacingAndGlyphs" textLength="291" x="1344.5" y="412.5364">«ctor»FullOrganisation (departments : List &lt;FullDepartment&gt;)</text><!--class com::edufuga::scala::entities.FullDepartment--><rect fill="#FEFECE" filter="url(#fp5ha0c)" height="70.0234" style="stroke: #A80036; stroke-width: 1.5;" width="840" x="2805" y="348.93"/><ellipse cx="3178.25" cy="369.0238" fill="#ADD1B2" rx="11" ry="11" style="stroke: #A80036; stroke-width: 1.0;"/><path d="M3181.0156,364.8988 Q3181.1719,364.68 3181.3594,364.5706 Q3181.5469,364.4613 3181.7656,364.4613 Q3182.1406,364.4613 3182.375,364.7269 Q3182.6094,364.9769 3182.6094,365.5863 L3182.6094,367.0394 Q3182.6094,367.6488 3182.375,367.9144 Q3182.1406,368.18 3181.7656,368.18 Q3181.4219,368.18 3181.2188,367.9769 Q3181.0156,367.7894 3180.9063,367.2738 Q3180.8594,366.9144 3180.6719,366.7269 Q3180.3438,366.3519 3179.7344,366.1331 Q3179.125,365.9144 3178.5,365.9144 Q3177.7344,365.9144 3177.0938,366.2425 Q3176.4688,366.5706 3175.9688,367.3206 Q3175.4844,368.0706 3175.4844,369.1019 L3175.4844,370.1956 Q3175.4844,371.43 3176.375,372.2581 Q3177.2656,373.0706 3178.8594,373.0706 Q3179.7969,373.0706 3180.4531,372.8206 Q3180.8438,372.6644 3181.2656,372.2269 Q3181.5313,371.9613 3181.6719,371.8831 Q3181.8281,371.805 3182.0313,371.805 Q3182.3594,371.805 3182.6094,372.0706 Q3182.875,372.3206 3182.875,372.6644 Q3182.875,373.0081 3182.5313,373.4144 Q3182.0313,373.9925 3181.2344,374.3206 Q3180.1563,374.7738 3178.8594,374.7738 Q3177.3438,374.7738 3176.1406,374.1488 Q3175.1563,373.6488 3174.4688,372.5863 Q3173.7813,371.5081 3173.7813,370.2269 L3173.7813,369.0706 Q3173.7813,367.7425 3174.3906,366.6019 Q3175.0156,365.4456 3176.1094,364.8363 Q3177.2031,364.2113 3178.4375,364.2113 Q3179.1719,364.2113 3179.8125,364.3831 Q3180.4688,364.5394 3181.0156,364.8988 Z "/><text fill="#000000" font-family="sans-serif" font-size="12" font-style="italic" lengthAdjust="spacingAndGlyphs" textLength="68" x="3207.25" y="366.387">«caseclass»</text><text fill="#000000" font-family="sans-serif" font-size="12" lengthAdjust="spacingAndGlyphs" textLength="85" x="3198.75" y="381.4808">FullDepartment</text><line style="stroke: #A80036; stroke-width: 1.5;" x1="2806" x2="3644" y1="389.1175" y2="389.1175"/><line style="stroke: #A80036; stroke-width: 1.5;" x1="2806" x2="3644" y1="397.1175" y2="397.1175"/><text fill="#000000" font-family="sans-serif" font-size="11" lengthAdjust="spacingAndGlyphs" textLength="828" x="2811" y="412.5364">«ctor»FullDepartment (id : DepartmentId,  name : DepartmentName,  manager : Manager,  employees : List &lt;Employee&gt;,  products : List &lt;Product&gt;,  services : List &lt;Service&gt;)</text><!--class com::edufuga::scala::entities.EmployeeTypes--><rect fill="#FEFECE" filter="url(#fp5ha0c)" height="70.0234" style="stroke: #A80036; stroke-width: 1.5;" width="150" x="5799" y="121.4"/><ellipse cx="5827.5" cy="141.4937" fill="#ADD1B2" rx="11" ry="11" style="stroke: #A80036; stroke-width: 1.0;"/><path d="M5830.2656,137.3687 Q5830.4219,137.15 5830.6094,137.0406 Q5830.7969,136.9312 5831.0156,136.9312 Q5831.3906,136.9312 5831.625,137.1969 Q5831.8594,137.4469 5831.8594,138.0562 L5831.8594,139.5094 Q5831.8594,140.1187 5831.625,140.3844 Q5831.3906,140.65 5831.0156,140.65 Q5830.6719,140.65 5830.4688,140.4469 Q5830.2656,140.2594 5830.1563,139.7437 Q5830.1094,139.3844 5829.9219,139.1969 Q5829.5938,138.8219 5828.9844,138.6031 Q5828.375,138.3844 5827.75,138.3844 Q5826.9844,138.3844 5826.3438,138.7125 Q5825.7188,139.0406 5825.2188,139.7906 Q5824.7344,140.5406 5824.7344,141.5719 L5824.7344,142.6656 Q5824.7344,143.9 5825.625,144.7281 Q5826.5156,145.5406 5828.1094,145.5406 Q5829.0469,145.5406 5829.7031,145.2906 Q5830.0938,145.1344 5830.5156,144.6969 Q5830.7813,144.4312 5830.9219,144.3531 Q5831.0781,144.275 5831.2813,144.275 Q5831.6094,144.275 5831.8594,144.5406 Q5832.125,144.7906 5832.125,145.1344 Q5832.125,145.4781 5831.7813,145.8844 Q5831.2813,146.4625 5830.4844,146.7906 Q5829.4063,147.2437 5828.1094,147.2437 Q5826.5938,147.2437 5825.3906,146.6187 Q5824.4063,146.1187 5823.7188,145.0562 Q5823.0313,143.9781 5823.0313,142.6969 L5823.0313,141.5406 Q5823.0313,140.2125 5823.6406,139.0719 Q5824.2656,137.9156 5825.3594,137.3062 Q5826.4531,136.6812 5827.6875,136.6812 Q5828.4219,136.6812 5829.0625,136.8531 Q5829.7188,137.0094 5830.2656,137.3687 Z "/><text fill="#000000" font-family="sans-serif" font-size="12" font-style="italic" lengthAdjust="spacingAndGlyphs" textLength="48" x="5864.5" y="138.857">«object»</text><text fill="#000000" font-family="sans-serif" font-size="12" lengthAdjust="spacingAndGlyphs" textLength="88" x="5844.5" y="153.9508">EmployeeTypes</text><line style="stroke: #A80036; stroke-width: 1.5;" x1="5800" x2="5948" y1="161.5875" y2="161.5875"/><text fill="#000000" font-family="sans-serif" font-size="11" lengthAdjust="spacingAndGlyphs" textLength="138" x="5805" y="177.0064">«type»ProductExpert : String</text><line style="stroke: #A80036; stroke-width: 1.5;" x1="5800" x2="5948" y1="183.4234" y2="183.4234"/><!--class com::edufuga::scala::entities.Employee--><rect fill="#FEFECE" filter="url(#fp5ha0c)" height="70.0234" style="stroke: #A80036; stroke-width: 1.5;" width="684" x="1676" y="348.93"/><ellipse cx="1981.75" cy="369.0238" fill="#ADD1B2" rx="11" ry="11" style="stroke: #A80036; stroke-width: 1.0;"/><path d="M1984.5156,364.8988 Q1984.6719,364.68 1984.8594,364.5706 Q1985.0469,364.4613 1985.2656,364.4613 Q1985.6406,364.4613 1985.875,364.7269 Q1986.1094,364.9769 1986.1094,365.5863 L1986.1094,367.0394 Q1986.1094,367.6488 1985.875,367.9144 Q1985.6406,368.18 1985.2656,368.18 Q1984.9219,368.18 1984.7188,367.9769 Q1984.5156,367.7894 1984.4063,367.2738 Q1984.3594,366.9144 1984.1719,366.7269 Q1983.8438,366.3519 1983.2344,366.1331 Q1982.625,365.9144 1982,365.9144 Q1981.2344,365.9144 1980.5938,366.2425 Q1979.9688,366.5706 1979.4688,367.3206 Q1978.9844,368.0706 1978.9844,369.1019 L1978.9844,370.1956 Q1978.9844,371.43 1979.875,372.2581 Q1980.7656,373.0706 1982.3594,373.0706 Q1983.2969,373.0706 1983.9531,372.8206 Q1984.3438,372.6644 1984.7656,372.2269 Q1985.0313,371.9613 1985.1719,371.8831 Q1985.3281,371.805 1985.5313,371.805 Q1985.8594,371.805 1986.1094,372.0706 Q1986.375,372.3206 1986.375,372.6644 Q1986.375,373.0081 1986.0313,373.4144 Q1985.5313,373.9925 1984.7344,374.3206 Q1983.6563,374.7738 1982.3594,374.7738 Q1980.8438,374.7738 1979.6406,374.1488 Q1978.6563,373.6488 1977.9688,372.5863 Q1977.2813,371.5081 1977.2813,370.2269 L1977.2813,369.0706 Q1977.2813,367.7425 1977.8906,366.6019 Q1978.5156,365.4456 1979.6094,364.8363 Q1980.7031,364.2113 1981.9375,364.2113 Q1982.6719,364.2113 1983.3125,364.3831 Q1983.9688,364.5394 1984.5156,364.8988 Z "/><text fill="#000000" font-family="sans-serif" font-size="12" font-style="italic" lengthAdjust="spacingAndGlyphs" textLength="68" x="2000.25" y="366.387">«caseclass»</text><text fill="#000000" font-family="sans-serif" font-size="12" lengthAdjust="spacingAndGlyphs" textLength="55" x="2006.75" y="381.4808">Employee</text><line style="stroke: #A80036; stroke-width: 1.5;" x1="1677" x2="2359" y1="389.1175" y2="389.1175"/><line style="stroke: #A80036; stroke-width: 1.5;" x1="1677" x2="2359" y1="397.1175" y2="397.1175"/><text fill="#000000" font-family="sans-serif" font-size="11" lengthAdjust="spacingAndGlyphs" textLength="672" x="1682" y="412.5364">«ctor»Employee (email : Email,  name : Name,  address : Option &lt;Address&gt;,  phone : Option &lt;Phone&gt;,  productExpert : List &lt;ProductExpert&gt;)</text><!--class com::edufuga::scala::entities.DepartmentTypes--><rect fill="#FEFECE" filter="url(#fp5ha0c)" height="83.8594" style="stroke: #A80036; stroke-width: 1.5;" width="164" x="5984" y="114.48"/><ellipse cx="6014.3" cy="134.5738" fill="#ADD1B2" rx="11" ry="11" style="stroke: #A80036; stroke-width: 1.0;"/><path d="M6017.0656,130.4488 Q6017.2219,130.23 6017.4094,130.1206 Q6017.5969,130.0113 6017.8156,130.0113 Q6018.1906,130.0113 6018.425,130.2769 Q6018.6594,130.5269 6018.6594,131.1363 L6018.6594,132.5894 Q6018.6594,133.1988 6018.425,133.4644 Q6018.1906,133.73 6017.8156,133.73 Q6017.4719,133.73 6017.2688,133.5269 Q6017.0656,133.3394 6016.9563,132.8238 Q6016.9094,132.4644 6016.7219,132.2769 Q6016.3938,131.9019 6015.7844,131.6831 Q6015.175,131.4644 6014.55,131.4644 Q6013.7844,131.4644 6013.1438,131.7925 Q6012.5188,132.1206 6012.0188,132.8706 Q6011.5344,133.6206 6011.5344,134.6519 L6011.5344,135.7456 Q6011.5344,136.98 6012.425,137.8081 Q6013.3156,138.6206 6014.9094,138.6206 Q6015.8469,138.6206 6016.5031,138.3706 Q6016.8938,138.2144 6017.3156,137.7769 Q6017.5813,137.5113 6017.7219,137.4331 Q6017.8781,137.355 6018.0813,137.355 Q6018.4094,137.355 6018.6594,137.6206 Q6018.925,137.8706 6018.925,138.2144 Q6018.925,138.5581 6018.5813,138.9644 Q6018.0813,139.5425 6017.2844,139.8706 Q6016.2063,140.3238 6014.9094,140.3238 Q6013.3938,140.3238 6012.1906,139.6988 Q6011.2063,139.1988 6010.5188,138.1363 Q6009.8313,137.0581 6009.8313,135.7769 L6009.8313,134.6206 Q6009.8313,133.2925 6010.4406,132.1519 Q6011.0656,130.9956 6012.1594,130.3863 Q6013.2531,129.7613 6014.4875,129.7613 Q6015.2219,129.7613 6015.8625,129.9331 Q6016.5188,130.0894 6017.0656,130.4488 Z "/><text fill="#000000" font-family="sans-serif" font-size="12" font-style="italic" lengthAdjust="spacingAndGlyphs" textLength="48" x="6056.7" y="131.937">«object»</text><text fill="#000000" font-family="sans-serif" font-size="12" lengthAdjust="spacingAndGlyphs" textLength="98" x="6031.7" y="147.0308">DepartmentTypes</text><line style="stroke: #A80036; stroke-width: 1.5;" x1="5985" x2="6147" y1="154.6675" y2="154.6675"/><text fill="#000000" font-family="sans-serif" font-size="11" lengthAdjust="spacingAndGlyphs" textLength="133" x="5990" y="170.0864">«type»DepartmentId : String</text><text fill="#000000" font-family="sans-serif" font-size="11" lengthAdjust="spacingAndGlyphs" textLength="152" x="5990" y="183.9224">«type»DepartmentName : String</text><line style="stroke: #A80036; stroke-width: 1.5;" x1="5985" x2="6147" y1="190.3394" y2="190.3394"/><!--class com::edufuga::scala::entities.Department--><rect fill="#FEFECE" filter="url(#fp5ha0c)" height="70.0234" style="stroke: #A80036; stroke-width: 1.5;" width="856" x="3680" y="348.93"/><ellipse cx="4071.25" cy="369.0238" fill="#ADD1B2" rx="11" ry="11" style="stroke: #A80036; stroke-width: 1.0;"/><path d="M4074.0156,364.8988 Q4074.1719,364.68 4074.3594,364.5706 Q4074.5469,364.4613 4074.7656,364.4613 Q4075.1406,364.4613 4075.375,364.7269 Q4075.6094,364.9769 4075.6094,365.5863 L4075.6094,367.0394 Q4075.6094,367.6488 4075.375,367.9144 Q4075.1406,368.18 4074.7656,368.18 Q4074.4219,368.18 4074.2188,367.9769 Q4074.0156,367.7894 4073.9063,367.2738 Q4073.8594,366.9144 4073.6719,366.7269 Q4073.3438,366.3519 4072.7344,366.1331 Q4072.125,365.9144 4071.5,365.9144 Q4070.7344,365.9144 4070.0938,366.2425 Q4069.4688,366.5706 4068.9688,367.3206 Q4068.4844,368.0706 4068.4844,369.1019 L4068.4844,370.1956 Q4068.4844,371.43 4069.375,372.2581 Q4070.2656,373.0706 4071.8594,373.0706 Q4072.7969,373.0706 4073.4531,372.8206 Q4073.8438,372.6644 4074.2656,372.2269 Q4074.5313,371.9613 4074.6719,371.8831 Q4074.8281,371.805 4075.0313,371.805 Q4075.3594,371.805 4075.6094,372.0706 Q4075.875,372.3206 4075.875,372.6644 Q4075.875,373.0081 4075.5313,373.4144 Q4075.0313,373.9925 4074.2344,374.3206 Q4073.1563,374.7738 4071.8594,374.7738 Q4070.3438,374.7738 4069.1406,374.1488 Q4068.1563,373.6488 4067.4688,372.5863 Q4066.7813,371.5081 4066.7813,370.2269 L4066.7813,369.0706 Q4066.7813,367.7425 4067.3906,366.6019 Q4068.0156,365.4456 4069.1094,364.8363 Q4070.2031,364.2113 4071.4375,364.2113 Q4072.1719,364.2113 4072.8125,364.3831 Q4073.4688,364.5394 4074.0156,364.8988 Z "/><text fill="#000000" font-family="sans-serif" font-size="12" font-style="italic" lengthAdjust="spacingAndGlyphs" textLength="68" x="4090.25" y="366.387">«caseclass»</text><text fill="#000000" font-family="sans-serif" font-size="12" lengthAdjust="spacingAndGlyphs" textLength="65" x="4091.75" y="381.4808">Department</text><line style="stroke: #A80036; stroke-width: 1.5;" x1="3681" x2="4535" y1="389.1175" y2="389.1175"/><line style="stroke: #A80036; stroke-width: 1.5;" x1="3681" x2="4535" y1="397.1175" y2="397.1175"/><text fill="#000000" font-family="sans-serif" font-size="11" lengthAdjust="spacingAndGlyphs" textLength="844" x="3686" y="412.5364">«ctor»Department (id : DepartmentId,  name : DepartmentName,  manager : Manager,  employees : List &lt;Employee&gt;,  productIds : List &lt;ProductId&gt;,  serviceIds : List &lt;ServiceId&gt;)</text><!--class com::edufuga::scala::entities::ProductTypes.Depth--><rect fill="#FEFECE" filter="url(#fp5ha0c)" height="70.0234" style="stroke: #A80036; stroke-width: 1.5;" width="132" x="108" y="348.93"/><ellipse cx="148.2" cy="369.0238" fill="#ADD1B2" rx="11" ry="11" style="stroke: #A80036; stroke-width: 1.0;"/><path d="M150.9656,364.8988 Q151.1219,364.68 151.3094,364.5706 Q151.4969,364.4613 151.7156,364.4613 Q152.0906,364.4613 152.325,364.7269 Q152.5594,364.9769 152.5594,365.5863 L152.5594,367.0394 Q152.5594,367.6488 152.325,367.9144 Q152.0906,368.18 151.7156,368.18 Q151.3719,368.18 151.1688,367.9769 Q150.9656,367.7894 150.8563,367.2738 Q150.8094,366.9144 150.6219,366.7269 Q150.2938,366.3519 149.6844,366.1331 Q149.075,365.9144 148.45,365.9144 Q147.6844,365.9144 147.0438,366.2425 Q146.4188,366.5706 145.9188,367.3206 Q145.4344,368.0706 145.4344,369.1019 L145.4344,370.1956 Q145.4344,371.43 146.325,372.2581 Q147.2156,373.0706 148.8094,373.0706 Q149.7469,373.0706 150.4031,372.8206 Q150.7938,372.6644 151.2156,372.2269 Q151.4813,371.9613 151.6219,371.8831 Q151.7781,371.805 151.9813,371.805 Q152.3094,371.805 152.5594,372.0706 Q152.825,372.3206 152.825,372.6644 Q152.825,373.0081 152.4813,373.4144 Q151.9813,373.9925 151.1844,374.3206 Q150.1063,374.7738 148.8094,374.7738 Q147.2938,374.7738 146.0906,374.1488 Q145.1063,373.6488 144.4188,372.5863 Q143.7313,371.5081 143.7313,370.2269 L143.7313,369.0706 Q143.7313,367.7425 144.3406,366.6019 Q144.9656,365.4456 146.0594,364.8363 Q147.1531,364.2113 148.3875,364.2113 Q149.1219,364.2113 149.7625,364.3831 Q150.4188,364.5394 150.9656,364.8988 Z "/><text fill="#000000" font-family="sans-serif" font-size="12" font-style="italic" lengthAdjust="spacingAndGlyphs" textLength="48" x="165.8" y="366.387">«object»</text><text fill="#000000" font-family="sans-serif" font-size="12" lengthAdjust="spacingAndGlyphs" textLength="33" x="173.3" y="381.4808">Depth</text><line style="stroke: #A80036; stroke-width: 1.5;" x1="109" x2="239" y1="389.1175" y2="389.1175"/><line style="stroke: #A80036; stroke-width: 1.5;" x1="109" x2="239" y1="397.1175" y2="397.1175"/><text fill="#000000" font-family="sans-serif" font-size="11" lengthAdjust="spacingAndGlyphs" textLength="120" x="114" y="412.5364">apply (value : Int) : Depth</text><!--class com::edufuga::scala::entities::ProductTypes.Weight--><rect fill="#FEFECE" filter="url(#fp5ha0c)" height="70.0234" style="stroke: #A80036; stroke-width: 1.5;" width="137" x="274.5" y="348.93"/><ellipse cx="316.95" cy="369.0238" fill="#ADD1B2" rx="11" ry="11" style="stroke: #A80036; stroke-width: 1.0;"/><path d="M319.7156,364.8988 Q319.8719,364.68 320.0594,364.5706 Q320.2469,364.4613 320.4656,364.4613 Q320.8406,364.4613 321.075,364.7269 Q321.3094,364.9769 321.3094,365.5863 L321.3094,367.0394 Q321.3094,367.6488 321.075,367.9144 Q320.8406,368.18 320.4656,368.18 Q320.1219,368.18 319.9188,367.9769 Q319.7156,367.7894 319.6063,367.2738 Q319.5594,366.9144 319.3719,366.7269 Q319.0438,366.3519 318.4344,366.1331 Q317.825,365.9144 317.2,365.9144 Q316.4344,365.9144 315.7938,366.2425 Q315.1688,366.5706 314.6688,367.3206 Q314.1844,368.0706 314.1844,369.1019 L314.1844,370.1956 Q314.1844,371.43 315.075,372.2581 Q315.9656,373.0706 317.5594,373.0706 Q318.4969,373.0706 319.1531,372.8206 Q319.5438,372.6644 319.9656,372.2269 Q320.2313,371.9613 320.3719,371.8831 Q320.5281,371.805 320.7313,371.805 Q321.0594,371.805 321.3094,372.0706 Q321.575,372.3206 321.575,372.6644 Q321.575,373.0081 321.2313,373.4144 Q320.7313,373.9925 319.9344,374.3206 Q318.8563,374.7738 317.5594,374.7738 Q316.0438,374.7738 314.8406,374.1488 Q313.8563,373.6488 313.1688,372.5863 Q312.4813,371.5081 312.4813,370.2269 L312.4813,369.0706 Q312.4813,367.7425 313.0906,366.6019 Q313.7156,365.4456 314.8094,364.8363 Q315.9031,364.2113 317.1375,364.2113 Q317.8719,364.2113 318.5125,364.3831 Q319.1688,364.5394 319.7156,364.8988 Z "/><text fill="#000000" font-family="sans-serif" font-size="12" font-style="italic" lengthAdjust="spacingAndGlyphs" textLength="48" x="335.05" y="366.387">«object»</text><text fill="#000000" font-family="sans-serif" font-size="12" lengthAdjust="spacingAndGlyphs" textLength="38" x="340.05" y="381.4808">Weight</text><line style="stroke: #A80036; stroke-width: 1.5;" x1="275.5" x2="410.5" y1="389.1175" y2="389.1175"/><line style="stroke: #A80036; stroke-width: 1.5;" x1="275.5" x2="410.5" y1="397.1175" y2="397.1175"/><text fill="#000000" font-family="sans-serif" font-size="11" lengthAdjust="spacingAndGlyphs" textLength="125" x="280.5" y="412.5364">apply (value : Int) : Weight</text><!--class com::edufuga::scala::entities::ProductTypes.Width--><rect fill="#FEFECE" filter="url(#fp5ha0c)" height="70.0234" style="stroke: #A80036; stroke-width: 1.5;" width="131" x="446.5" y="348.93"/><ellipse cx="486.25" cy="369.0238" fill="#ADD1B2" rx="11" ry="11" style="stroke: #A80036; stroke-width: 1.0;"/><path d="M489.0156,364.8988 Q489.1719,364.68 489.3594,364.5706 Q489.5469,364.4613 489.7656,364.4613 Q490.1406,364.4613 490.375,364.7269 Q490.6094,364.9769 490.6094,365.5863 L490.6094,367.0394 Q490.6094,367.6488 490.375,367.9144 Q490.1406,368.18 489.7656,368.18 Q489.4219,368.18 489.2188,367.9769 Q489.0156,367.7894 488.9063,367.2738 Q488.8594,366.9144 488.6719,366.7269 Q488.3438,366.3519 487.7344,366.1331 Q487.125,365.9144 486.5,365.9144 Q485.7344,365.9144 485.0938,366.2425 Q484.4688,366.5706 483.9688,367.3206 Q483.4844,368.0706 483.4844,369.1019 L483.4844,370.1956 Q483.4844,371.43 484.375,372.2581 Q485.2656,373.0706 486.8594,373.0706 Q487.7969,373.0706 488.4531,372.8206 Q488.8438,372.6644 489.2656,372.2269 Q489.5313,371.9613 489.6719,371.8831 Q489.8281,371.805 490.0313,371.805 Q490.3594,371.805 490.6094,372.0706 Q490.875,372.3206 490.875,372.6644 Q490.875,373.0081 490.5313,373.4144 Q490.0313,373.9925 489.2344,374.3206 Q488.1563,374.7738 486.8594,374.7738 Q485.3438,374.7738 484.1406,374.1488 Q483.1563,373.6488 482.4688,372.5863 Q481.7813,371.5081 481.7813,370.2269 L481.7813,369.0706 Q481.7813,367.7425 482.3906,366.6019 Q483.0156,365.4456 484.1094,364.8363 Q485.2031,364.2113 486.4375,364.2113 Q487.1719,364.2113 487.8125,364.3831 Q488.4688,364.5394 489.0156,364.8988 Z "/><text fill="#000000" font-family="sans-serif" font-size="12" font-style="italic" lengthAdjust="spacingAndGlyphs" textLength="48" x="503.75" y="366.387">«object»</text><text fill="#000000" font-family="sans-serif" font-size="12" lengthAdjust="spacingAndGlyphs" textLength="31" x="512.25" y="381.4808">Width</text><line style="stroke: #A80036; stroke-width: 1.5;" x1="447.5" x2="576.5" y1="389.1175" y2="389.1175"/><line style="stroke: #A80036; stroke-width: 1.5;" x1="447.5" x2="576.5" y1="397.1175" y2="397.1175"/><text fill="#000000" font-family="sans-serif" font-size="11" lengthAdjust="spacingAndGlyphs" textLength="119" x="452.5" y="412.5364">apply (value : Int) : Width</text><!--class com::edufuga::scala::entities::ProductTypes.Height--><rect fill="#FEFECE" filter="url(#fp5ha0c)" height="70.0234" style="stroke: #A80036; stroke-width: 1.5;" width="134" x="54" y="535.95"/><ellipse cx="95.1" cy="556.0438" fill="#ADD1B2" rx="11" ry="11" style="stroke: #A80036; stroke-width: 1.0;"/><path d="M97.8656,551.9188 Q98.0219,551.7 98.2094,551.5906 Q98.3969,551.4813 98.6156,551.4813 Q98.9906,551.4813 99.225,551.7469 Q99.4594,551.9969 99.4594,552.6063 L99.4594,554.0594 Q99.4594,554.6688 99.225,554.9344 Q98.9906,555.2 98.6156,555.2 Q98.2719,555.2 98.0688,554.9969 Q97.8656,554.8094 97.7563,554.2938 Q97.7094,553.9344 97.5219,553.7469 Q97.1938,553.3719 96.5844,553.1531 Q95.975,552.9344 95.35,552.9344 Q94.5844,552.9344 93.9438,553.2625 Q93.3188,553.5906 92.8188,554.3406 Q92.3344,555.0906 92.3344,556.1219 L92.3344,557.2156 Q92.3344,558.45 93.225,559.2781 Q94.1156,560.0906 95.7094,560.0906 Q96.6469,560.0906 97.3031,559.8406 Q97.6938,559.6844 98.1156,559.2469 Q98.3813,558.9813 98.5219,558.9031 Q98.6781,558.825 98.8813,558.825 Q99.2094,558.825 99.4594,559.0906 Q99.725,559.3406 99.725,559.6844 Q99.725,560.0281 99.3813,560.4344 Q98.8813,561.0125 98.0844,561.3406 Q97.0063,561.7938 95.7094,561.7938 Q94.1938,561.7938 92.9906,561.1688 Q92.0063,560.6688 91.3188,559.6063 Q90.6313,558.5281 90.6313,557.2469 L90.6313,556.0906 Q90.6313,554.7625 91.2406,553.6219 Q91.8656,552.4656 92.9594,551.8563 Q94.0531,551.2313 95.2875,551.2313 Q96.0219,551.2313 96.6625,551.4031 Q97.3188,551.5594 97.8656,551.9188 Z "/><text fill="#000000" font-family="sans-serif" font-size="12" font-style="italic" lengthAdjust="spacingAndGlyphs" textLength="48" x="112.9" y="553.407">«object»</text><text fill="#000000" font-family="sans-serif" font-size="12" lengthAdjust="spacingAndGlyphs" textLength="36" x="118.9" y="568.5008">Height</text><line style="stroke: #A80036; stroke-width: 1.5;" x1="55" x2="187" y1="576.1375" y2="576.1375"/><line style="stroke: #A80036; stroke-width: 1.5;" x1="55" x2="187" y1="584.1375" y2="584.1375"/><text fill="#000000" font-family="sans-serif" font-size="11" lengthAdjust="spacingAndGlyphs" textLength="122" x="60" y="599.5564">apply (value : Int) : Height</text><!--class com::edufuga::scala::entities::ProductTypes.ProductManager--><rect fill="#FEFECE" filter="url(#fp5ha0c)" height="70.0234" style="stroke: #A80036; stroke-width: 1.5;" width="200" x="223" y="535.95"/><ellipse cx="273.75" cy="556.0438" fill="#ADD1B2" rx="11" ry="11" style="stroke: #A80036; stroke-width: 1.0;"/><path d="M276.5156,551.9188 Q276.6719,551.7 276.8594,551.5906 Q277.0469,551.4813 277.2656,551.4813 Q277.6406,551.4813 277.875,551.7469 Q278.1094,551.9969 278.1094,552.6063 L278.1094,554.0594 Q278.1094,554.6688 277.875,554.9344 Q277.6406,555.2 277.2656,555.2 Q276.9219,555.2 276.7188,554.9969 Q276.5156,554.8094 276.4063,554.2938 Q276.3594,553.9344 276.1719,553.7469 Q275.8438,553.3719 275.2344,553.1531 Q274.625,552.9344 274,552.9344 Q273.2344,552.9344 272.5938,553.2625 Q271.9688,553.5906 271.4688,554.3406 Q270.9844,555.0906 270.9844,556.1219 L270.9844,557.2156 Q270.9844,558.45 271.875,559.2781 Q272.7656,560.0906 274.3594,560.0906 Q275.2969,560.0906 275.9531,559.8406 Q276.3438,559.6844 276.7656,559.2469 Q277.0313,558.9813 277.1719,558.9031 Q277.3281,558.825 277.5313,558.825 Q277.8594,558.825 278.1094,559.0906 Q278.375,559.3406 278.375,559.6844 Q278.375,560.0281 278.0313,560.4344 Q277.5313,561.0125 276.7344,561.3406 Q275.6563,561.7938 274.3594,561.7938 Q272.8438,561.7938 271.6406,561.1688 Q270.6563,560.6688 269.9688,559.6063 Q269.2813,558.5281 269.2813,557.2469 L269.2813,556.0906 Q269.2813,554.7625 269.8906,553.6219 Q270.5156,552.4656 271.6094,551.8563 Q272.7031,551.2313 273.9375,551.2313 Q274.6719,551.2313 275.3125,551.4031 Q275.9688,551.5594 276.5156,551.9188 Z "/><text fill="#000000" font-family="sans-serif" font-size="12" font-style="italic" lengthAdjust="spacingAndGlyphs" textLength="48" x="315.25" y="553.407">«object»</text><text fill="#000000" font-family="sans-serif" font-size="12" lengthAdjust="spacingAndGlyphs" textLength="90" x="294.25" y="568.5008">ProductManager</text><line style="stroke: #A80036; stroke-width: 1.5;" x1="224" x2="422" y1="576.1375" y2="576.1375"/><line style="stroke: #A80036; stroke-width: 1.5;" x1="224" x2="422" y1="584.1375" y2="584.1375"/><text fill="#000000" font-family="sans-serif" font-size="11" lengthAdjust="spacingAndGlyphs" textLength="188" x="229" y="599.5564">apply (value : String) : ProductManager</text><!--class com::edufuga::scala::entities::ProductTypes.ProductName--><rect fill="#FEFECE" filter="url(#fp5ha0c)" height="70.0234" style="stroke: #A80036; stroke-width: 1.5;" width="185" x="457.5" y="535.95"/><ellipse cx="507.75" cy="556.0438" fill="#ADD1B2" rx="11" ry="11" style="stroke: #A80036; stroke-width: 1.0;"/><path d="M510.5156,551.9188 Q510.6719,551.7 510.8594,551.5906 Q511.0469,551.4813 511.2656,551.4813 Q511.6406,551.4813 511.875,551.7469 Q512.1094,551.9969 512.1094,552.6063 L512.1094,554.0594 Q512.1094,554.6688 511.875,554.9344 Q511.6406,555.2 511.2656,555.2 Q510.9219,555.2 510.7188,554.9969 Q510.5156,554.8094 510.4063,554.2938 Q510.3594,553.9344 510.1719,553.7469 Q509.8438,553.3719 509.2344,553.1531 Q508.625,552.9344 508,552.9344 Q507.2344,552.9344 506.5938,553.2625 Q505.9688,553.5906 505.4688,554.3406 Q504.9844,555.0906 504.9844,556.1219 L504.9844,557.2156 Q504.9844,558.45 505.875,559.2781 Q506.7656,560.0906 508.3594,560.0906 Q509.2969,560.0906 509.9531,559.8406 Q510.3438,559.6844 510.7656,559.2469 Q511.0313,558.9813 511.1719,558.9031 Q511.3281,558.825 511.5313,558.825 Q511.8594,558.825 512.1094,559.0906 Q512.375,559.3406 512.375,559.6844 Q512.375,560.0281 512.0313,560.4344 Q511.5313,561.0125 510.7344,561.3406 Q509.6563,561.7938 508.3594,561.7938 Q506.8438,561.7938 505.6406,561.1688 Q504.6563,560.6688 503.9688,559.6063 Q503.2813,558.5281 503.2813,557.2469 L503.2813,556.0906 Q503.2813,554.7625 503.8906,553.6219 Q504.5156,552.4656 505.6094,551.8563 Q506.7031,551.2313 507.9375,551.2313 Q508.6719,551.2313 509.3125,551.4031 Q509.9688,551.5594 510.5156,551.9188 Z "/><text fill="#000000" font-family="sans-serif" font-size="12" font-style="italic" lengthAdjust="spacingAndGlyphs" textLength="48" x="542.25" y="553.407">«object»</text><text fill="#000000" font-family="sans-serif" font-size="12" lengthAdjust="spacingAndGlyphs" textLength="76" x="528.25" y="568.5008">ProductName</text><line style="stroke: #A80036; stroke-width: 1.5;" x1="458.5" x2="641.5" y1="576.1375" y2="576.1375"/><line style="stroke: #A80036; stroke-width: 1.5;" x1="458.5" x2="641.5" y1="584.1375" y2="584.1375"/><text fill="#000000" font-family="sans-serif" font-size="11" lengthAdjust="spacingAndGlyphs" textLength="173" x="463.5" y="599.5564">apply (value : String) : ProductName</text><!--class com::edufuga::scala::entities::ProductTypes.ProductId--><rect fill="#FEFECE" filter="url(#fp5ha0c)" height="70.0234" style="stroke: #A80036; stroke-width: 1.5;" width="166" x="54" y="666.98"/><ellipse cx="106.75" cy="687.0738" fill="#ADD1B2" rx="11" ry="11" style="stroke: #A80036; stroke-width: 1.0;"/><path d="M109.5156,682.9488 Q109.6719,682.73 109.8594,682.6206 Q110.0469,682.5113 110.2656,682.5113 Q110.6406,682.5113 110.875,682.7769 Q111.1094,683.0269 111.1094,683.6363 L111.1094,685.0894 Q111.1094,685.6988 110.875,685.9644 Q110.6406,686.23 110.2656,686.23 Q109.9219,686.23 109.7188,686.0269 Q109.5156,685.8394 109.4063,685.3238 Q109.3594,684.9644 109.1719,684.7769 Q108.8438,684.4019 108.2344,684.1831 Q107.625,683.9644 107,683.9644 Q106.2344,683.9644 105.5938,684.2925 Q104.9688,684.6206 104.4688,685.3706 Q103.9844,686.1206 103.9844,687.1519 L103.9844,688.2456 Q103.9844,689.48 104.875,690.3081 Q105.7656,691.1206 107.3594,691.1206 Q108.2969,691.1206 108.9531,690.8706 Q109.3438,690.7144 109.7656,690.2769 Q110.0313,690.0113 110.1719,689.9331 Q110.3281,689.855 110.5313,689.855 Q110.8594,689.855 111.1094,690.1206 Q111.375,690.3706 111.375,690.7144 Q111.375,691.0581 111.0313,691.4644 Q110.5313,692.0425 109.7344,692.3706 Q108.6563,692.8238 107.3594,692.8238 Q105.8438,692.8238 104.6406,692.1988 Q103.6563,691.6988 102.9688,690.6363 Q102.2813,689.5581 102.2813,688.2769 L102.2813,687.1206 Q102.2813,685.7925 102.8906,684.6519 Q103.5156,683.4956 104.6094,682.8863 Q105.7031,682.2613 106.9375,682.2613 Q107.6719,682.2613 108.3125,682.4331 Q108.9688,682.5894 109.5156,682.9488 Z "/><text fill="#000000" font-family="sans-serif" font-size="12" font-style="italic" lengthAdjust="spacingAndGlyphs" textLength="48" x="129.25" y="684.437">«object»</text><text fill="#000000" font-family="sans-serif" font-size="12" lengthAdjust="spacingAndGlyphs" textLength="52" x="127.25" y="699.5308">ProductId</text><line style="stroke: #A80036; stroke-width: 1.5;" x1="55" x2="219" y1="707.1675" y2="707.1675"/><line style="stroke: #A80036; stroke-width: 1.5;" x1="55" x2="219" y1="715.1675" y2="715.1675"/><text fill="#000000" font-family="sans-serif" font-size="11" lengthAdjust="spacingAndGlyphs" textLength="154" x="60" y="730.5864">apply (value : String) : ProductId</text><!--class com::edufuga::scala::entities::PersonTypes.Phone--><rect fill="#FEFECE" filter="url(#fp5ha0c)" height="70.0234" style="stroke: #A80036; stroke-width: 1.5;" width="151" x="1097.5" y="535.95"/><ellipse cx="1146.75" cy="556.0438" fill="#ADD1B2" rx="11" ry="11" style="stroke: #A80036; stroke-width: 1.0;"/><path d="M1149.5156,551.9188 Q1149.6719,551.7 1149.8594,551.5906 Q1150.0469,551.4813 1150.2656,551.4813 Q1150.6406,551.4813 1150.875,551.7469 Q1151.1094,551.9969 1151.1094,552.6063 L1151.1094,554.0594 Q1151.1094,554.6688 1150.875,554.9344 Q1150.6406,555.2 1150.2656,555.2 Q1149.9219,555.2 1149.7188,554.9969 Q1149.5156,554.8094 1149.4063,554.2938 Q1149.3594,553.9344 1149.1719,553.7469 Q1148.8438,553.3719 1148.2344,553.1531 Q1147.625,552.9344 1147,552.9344 Q1146.2344,552.9344 1145.5938,553.2625 Q1144.9688,553.5906 1144.4688,554.3406 Q1143.9844,555.0906 1143.9844,556.1219 L1143.9844,557.2156 Q1143.9844,558.45 1144.875,559.2781 Q1145.7656,560.0906 1147.3594,560.0906 Q1148.2969,560.0906 1148.9531,559.8406 Q1149.3438,559.6844 1149.7656,559.2469 Q1150.0313,558.9813 1150.1719,558.9031 Q1150.3281,558.825 1150.5313,558.825 Q1150.8594,558.825 1151.1094,559.0906 Q1151.375,559.3406 1151.375,559.6844 Q1151.375,560.0281 1151.0313,560.4344 Q1150.5313,561.0125 1149.7344,561.3406 Q1148.6563,561.7938 1147.3594,561.7938 Q1145.8438,561.7938 1144.6406,561.1688 Q1143.6563,560.6688 1142.9688,559.6063 Q1142.2813,558.5281 1142.2813,557.2469 L1142.2813,556.0906 Q1142.2813,554.7625 1142.8906,553.6219 Q1143.5156,552.4656 1144.6094,551.8563 Q1145.7031,551.2313 1146.9375,551.2313 Q1147.6719,551.2313 1148.3125,551.4031 Q1148.9688,551.5594 1149.5156,551.9188 Z "/><text fill="#000000" font-family="sans-serif" font-size="12" font-style="italic" lengthAdjust="spacingAndGlyphs" textLength="48" x="1165.25" y="553.407">«object»</text><text fill="#000000" font-family="sans-serif" font-size="12" lengthAdjust="spacingAndGlyphs" textLength="36" x="1171.25" y="568.5008">Phone</text><line style="stroke: #A80036; stroke-width: 1.5;" x1="1098.5" x2="1247.5" y1="576.1375" y2="576.1375"/><line style="stroke: #A80036; stroke-width: 1.5;" x1="1098.5" x2="1247.5" y1="584.1375" y2="584.1375"/><text fill="#000000" font-family="sans-serif" font-size="11" lengthAdjust="spacingAndGlyphs" textLength="139" x="1103.5" y="599.5564">apply (value : String) : Phone</text><!--class com::edufuga::scala::entities::PersonTypes.Address--><rect fill="#FEFECE" filter="url(#fp5ha0c)" height="70.0234" style="stroke: #A80036; stroke-width: 1.5;" width="163" x="1283.5" y="535.95"/><ellipse cx="1337.75" cy="556.0438" fill="#ADD1B2" rx="11" ry="11" style="stroke: #A80036; stroke-width: 1.0;"/><path d="M1340.5156,551.9188 Q1340.6719,551.7 1340.8594,551.5906 Q1341.0469,551.4813 1341.2656,551.4813 Q1341.6406,551.4813 1341.875,551.7469 Q1342.1094,551.9969 1342.1094,552.6063 L1342.1094,554.0594 Q1342.1094,554.6688 1341.875,554.9344 Q1341.6406,555.2 1341.2656,555.2 Q1340.9219,555.2 1340.7188,554.9969 Q1340.5156,554.8094 1340.4063,554.2938 Q1340.3594,553.9344 1340.1719,553.7469 Q1339.8438,553.3719 1339.2344,553.1531 Q1338.625,552.9344 1338,552.9344 Q1337.2344,552.9344 1336.5938,553.2625 Q1335.9688,553.5906 1335.4688,554.3406 Q1334.9844,555.0906 1334.9844,556.1219 L1334.9844,557.2156 Q1334.9844,558.45 1335.875,559.2781 Q1336.7656,560.0906 1338.3594,560.0906 Q1339.2969,560.0906 1339.9531,559.8406 Q1340.3438,559.6844 1340.7656,559.2469 Q1341.0313,558.9813 1341.1719,558.9031 Q1341.3281,558.825 1341.5313,558.825 Q1341.8594,558.825 1342.1094,559.0906 Q1342.375,559.3406 1342.375,559.6844 Q1342.375,560.0281 1342.0313,560.4344 Q1341.5313,561.0125 1340.7344,561.3406 Q1339.6563,561.7938 1338.3594,561.7938 Q1336.8438,561.7938 1335.6406,561.1688 Q1334.6563,560.6688 1333.9688,559.6063 Q1333.2813,558.5281 1333.2813,557.2469 L1333.2813,556.0906 Q1333.2813,554.7625 1333.8906,553.6219 Q1334.5156,552.4656 1335.6094,551.8563 Q1336.7031,551.2313 1337.9375,551.2313 Q1338.6719,551.2313 1339.3125,551.4031 Q1339.9688,551.5594 1340.5156,551.9188 Z "/><text fill="#000000" font-family="sans-serif" font-size="12" font-style="italic" lengthAdjust="spacingAndGlyphs" textLength="48" x="1357.25" y="553.407">«object»</text><text fill="#000000" font-family="sans-serif" font-size="12" lengthAdjust="spacingAndGlyphs" textLength="46" x="1358.25" y="568.5008">Address</text><line style="stroke: #A80036; stroke-width: 1.5;" x1="1284.5" x2="1445.5" y1="576.1375" y2="576.1375"/><line style="stroke: #A80036; stroke-width: 1.5;" x1="1284.5" x2="1445.5" y1="584.1375" y2="584.1375"/><text fill="#000000" font-family="sans-serif" font-size="11" lengthAdjust="spacingAndGlyphs" textLength="151" x="1289.5" y="599.5564">apply (value : String) : Address</text><!--class com::edufuga::scala::entities::PersonTypes.Name--><rect fill="#FEFECE" filter="url(#fp5ha0c)" height="70.0234" style="stroke: #A80036; stroke-width: 1.5;" width="148" x="1099" y="666.98"/><ellipse cx="1146.75" cy="687.0738" fill="#ADD1B2" rx="11" ry="11" style="stroke: #A80036; stroke-width: 1.0;"/><path d="M1149.5156,682.9488 Q1149.6719,682.73 1149.8594,682.6206 Q1150.0469,682.5113 1150.2656,682.5113 Q1150.6406,682.5113 1150.875,682.7769 Q1151.1094,683.0269 1151.1094,683.6363 L1151.1094,685.0894 Q1151.1094,685.6988 1150.875,685.9644 Q1150.6406,686.23 1150.2656,686.23 Q1149.9219,686.23 1149.7188,686.0269 Q1149.5156,685.8394 1149.4063,685.3238 Q1149.3594,684.9644 1149.1719,684.7769 Q1148.8438,684.4019 1148.2344,684.1831 Q1147.625,683.9644 1147,683.9644 Q1146.2344,683.9644 1145.5938,684.2925 Q1144.9688,684.6206 1144.4688,685.3706 Q1143.9844,686.1206 1143.9844,687.1519 L1143.9844,688.2456 Q1143.9844,689.48 1144.875,690.3081 Q1145.7656,691.1206 1147.3594,691.1206 Q1148.2969,691.1206 1148.9531,690.8706 Q1149.3438,690.7144 1149.7656,690.2769 Q1150.0313,690.0113 1150.1719,689.9331 Q1150.3281,689.855 1150.5313,689.855 Q1150.8594,689.855 1151.1094,690.1206 Q1151.375,690.3706 1151.375,690.7144 Q1151.375,691.0581 1151.0313,691.4644 Q1150.5313,692.0425 1149.7344,692.3706 Q1148.6563,692.8238 1147.3594,692.8238 Q1145.8438,692.8238 1144.6406,692.1988 Q1143.6563,691.6988 1142.9688,690.6363 Q1142.2813,689.5581 1142.2813,688.2769 L1142.2813,687.1206 Q1142.2813,685.7925 1142.8906,684.6519 Q1143.5156,683.4956 1144.6094,682.8863 Q1145.7031,682.2613 1146.9375,682.2613 Q1147.6719,682.2613 1148.3125,682.4331 Q1148.9688,682.5894 1149.5156,682.9488 Z "/><text fill="#000000" font-family="sans-serif" font-size="12" font-style="italic" lengthAdjust="spacingAndGlyphs" textLength="48" x="1165.25" y="684.437">«object»</text><text fill="#000000" font-family="sans-serif" font-size="12" lengthAdjust="spacingAndGlyphs" textLength="34" x="1172.25" y="699.5308">Name</text><line style="stroke: #A80036; stroke-width: 1.5;" x1="1100" x2="1246" y1="707.1675" y2="707.1675"/><line style="stroke: #A80036; stroke-width: 1.5;" x1="1100" x2="1246" y1="715.1675" y2="715.1675"/><text fill="#000000" font-family="sans-serif" font-size="11" lengthAdjust="spacingAndGlyphs" textLength="136" x="1105" y="730.5864">apply (value : String) : Name</text><!--class com::edufuga::scala::entities::PersonTypes.Email--><rect fill="#FEFECE" filter="url(#fp5ha0c)" height="70.0234" style="stroke: #A80036; stroke-width: 1.5;" width="145" x="1282.5" y="666.98"/><ellipse cx="1328.75" cy="687.0738" fill="#ADD1B2" rx="11" ry="11" style="stroke: #A80036; stroke-width: 1.0;"/><path d="M1331.5156,682.9488 Q1331.6719,682.73 1331.8594,682.6206 Q1332.0469,682.5113 1332.2656,682.5113 Q1332.6406,682.5113 1332.875,682.7769 Q1333.1094,683.0269 1333.1094,683.6363 L1333.1094,685.0894 Q1333.1094,685.6988 1332.875,685.9644 Q1332.6406,686.23 1332.2656,686.23 Q1331.9219,686.23 1331.7188,686.0269 Q1331.5156,685.8394 1331.4063,685.3238 Q1331.3594,684.9644 1331.1719,684.7769 Q1330.8438,684.4019 1330.2344,684.1831 Q1329.625,683.9644 1329,683.9644 Q1328.2344,683.9644 1327.5938,684.2925 Q1326.9688,684.6206 1326.4688,685.3706 Q1325.9844,686.1206 1325.9844,687.1519 L1325.9844,688.2456 Q1325.9844,689.48 1326.875,690.3081 Q1327.7656,691.1206 1329.3594,691.1206 Q1330.2969,691.1206 1330.9531,690.8706 Q1331.3438,690.7144 1331.7656,690.2769 Q1332.0313,690.0113 1332.1719,689.9331 Q1332.3281,689.855 1332.5313,689.855 Q1332.8594,689.855 1333.1094,690.1206 Q1333.375,690.3706 1333.375,690.7144 Q1333.375,691.0581 1333.0313,691.4644 Q1332.5313,692.0425 1331.7344,692.3706 Q1330.6563,692.8238 1329.3594,692.8238 Q1327.8438,692.8238 1326.6406,692.1988 Q1325.6563,691.6988 1324.9688,690.6363 Q1324.2813,689.5581 1324.2813,688.2769 L1324.2813,687.1206 Q1324.2813,685.7925 1324.8906,684.6519 Q1325.5156,683.4956 1326.6094,682.8863 Q1327.7031,682.2613 1328.9375,682.2613 Q1329.6719,682.2613 1330.3125,682.4331 Q1330.9688,682.5894 1331.5156,682.9488 Z "/><text fill="#000000" font-family="sans-serif" font-size="12" font-style="italic" lengthAdjust="spacingAndGlyphs" textLength="48" x="1347.25" y="684.437">«object»</text><text fill="#000000" font-family="sans-serif" font-size="12" lengthAdjust="spacingAndGlyphs" textLength="32" x="1355.25" y="699.5308">Email</text><line style="stroke: #A80036; stroke-width: 1.5;" x1="1283.5" x2="1426.5" y1="707.1675" y2="707.1675"/><line style="stroke: #A80036; stroke-width: 1.5;" x1="1283.5" x2="1426.5" y1="715.1675" y2="715.1675"/><text fill="#000000" font-family="sans-serif" font-size="11" lengthAdjust="spacingAndGlyphs" textLength="133" x="1288.5" y="730.5864">apply (value : String) : Email</text><!--class com::edufuga::scala::entities::EmployeeTypes.ProductExpert--><rect fill="#FEFECE" filter="url(#fp5ha0c)" height="70.0234" style="stroke: #A80036; stroke-width: 1.5;" width="189" x="6220.5" y="348.93"/><ellipse cx="6272.75" cy="369.0238" fill="#ADD1B2" rx="11" ry="11" style="stroke: #A80036; stroke-width: 1.0;"/><path d="M6275.5156,364.8988 Q6275.6719,364.68 6275.8594,364.5706 Q6276.0469,364.4613 6276.2656,364.4613 Q6276.6406,364.4613 6276.875,364.7269 Q6277.1094,364.9769 6277.1094,365.5863 L6277.1094,367.0394 Q6277.1094,367.6488 6276.875,367.9144 Q6276.6406,368.18 6276.2656,368.18 Q6275.9219,368.18 6275.7188,367.9769 Q6275.5156,367.7894 6275.4063,367.2738 Q6275.3594,366.9144 6275.1719,366.7269 Q6274.8438,366.3519 6274.2344,366.1331 Q6273.625,365.9144 6273,365.9144 Q6272.2344,365.9144 6271.5938,366.2425 Q6270.9688,366.5706 6270.4688,367.3206 Q6269.9844,368.0706 6269.9844,369.1019 L6269.9844,370.1956 Q6269.9844,371.43 6270.875,372.2581 Q6271.7656,373.0706 6273.3594,373.0706 Q6274.2969,373.0706 6274.9531,372.8206 Q6275.3438,372.6644 6275.7656,372.2269 Q6276.0313,371.9613 6276.1719,371.8831 Q6276.3281,371.805 6276.5313,371.805 Q6276.8594,371.805 6277.1094,372.0706 Q6277.375,372.3206 6277.375,372.6644 Q6277.375,373.0081 6277.0313,373.4144 Q6276.5313,373.9925 6275.7344,374.3206 Q6274.6563,374.7738 6273.3594,374.7738 Q6271.8438,374.7738 6270.6406,374.1488 Q6269.6563,373.6488 6268.9688,372.5863 Q6268.2813,371.5081 6268.2813,370.2269 L6268.2813,369.0706 Q6268.2813,367.7425 6268.8906,366.6019 Q6269.5156,365.4456 6270.6094,364.8363 Q6271.7031,364.2113 6272.9375,364.2113 Q6273.6719,364.2113 6274.3125,364.3831 Q6274.9688,364.5394 6275.5156,364.8988 Z "/><text fill="#000000" font-family="sans-serif" font-size="12" font-style="italic" lengthAdjust="spacingAndGlyphs" textLength="48" x="6307.25" y="366.387">«object»</text><text fill="#000000" font-family="sans-serif" font-size="12" lengthAdjust="spacingAndGlyphs" textLength="76" x="6293.25" y="381.4808">ProductExpert</text><line style="stroke: #A80036; stroke-width: 1.5;" x1="6221.5" x2="6408.5" y1="389.1175" y2="389.1175"/><line style="stroke: #A80036; stroke-width: 1.5;" x1="6221.5" x2="6408.5" y1="397.1175" y2="397.1175"/><text fill="#000000" font-family="sans-serif" font-size="11" lengthAdjust="spacingAndGlyphs" textLength="177" x="6226.5" y="412.5364">apply (value : String) : ProductExpert</text><!--class com::edufuga::scala::entities::DepartmentTypes.DepartmentName--><rect fill="#FEFECE" filter="url(#fp5ha0c)" height="70.0234" style="stroke: #A80036; stroke-width: 1.5;" width="203" x="6592.5" y="348.93"/><ellipse cx="6640.25" cy="369.0238" fill="#ADD1B2" rx="11" ry="11" style="stroke: #A80036; stroke-width: 1.0;"/><path d="M6643.0156,364.8988 Q6643.1719,364.68 6643.3594,364.5706 Q6643.5469,364.4613 6643.7656,364.4613 Q6644.1406,364.4613 6644.375,364.7269 Q6644.6094,364.9769 6644.6094,365.5863 L6644.6094,367.0394 Q6644.6094,367.6488 6644.375,367.9144 Q6644.1406,368.18 6643.7656,368.18 Q6643.4219,368.18 6643.2188,367.9769 Q6643.0156,367.7894 6642.9063,367.2738 Q6642.8594,366.9144 6642.6719,366.7269 Q6642.3438,366.3519 6641.7344,366.1331 Q6641.125,365.9144 6640.5,365.9144 Q6639.7344,365.9144 6639.0938,366.2425 Q6638.4688,366.5706 6637.9688,367.3206 Q6637.4844,368.0706 6637.4844,369.1019 L6637.4844,370.1956 Q6637.4844,371.43 6638.375,372.2581 Q6639.2656,373.0706 6640.8594,373.0706 Q6641.7969,373.0706 6642.4531,372.8206 Q6642.8438,372.6644 6643.2656,372.2269 Q6643.5313,371.9613 6643.6719,371.8831 Q6643.8281,371.805 6644.0313,371.805 Q6644.3594,371.805 6644.6094,372.0706 Q6644.875,372.3206 6644.875,372.6644 Q6644.875,373.0081 6644.5313,373.4144 Q6644.0313,373.9925 6643.2344,374.3206 Q6642.1563,374.7738 6640.8594,374.7738 Q6639.3438,374.7738 6638.1406,374.1488 Q6637.1563,373.6488 6636.4688,372.5863 Q6635.7813,371.5081 6635.7813,370.2269 L6635.7813,369.0706 Q6635.7813,367.7425 6636.3906,366.6019 Q6637.0156,365.4456 6638.1094,364.8363 Q6639.2031,364.2113 6640.4375,364.2113 Q6641.1719,364.2113 6641.8125,364.3831 Q6642.4688,364.5394 6643.0156,364.8988 Z "/><text fill="#000000" font-family="sans-serif" font-size="12" font-style="italic" lengthAdjust="spacingAndGlyphs" textLength="48" x="6686.25" y="366.387">«object»</text><text fill="#000000" font-family="sans-serif" font-size="12" lengthAdjust="spacingAndGlyphs" textLength="99" x="6660.75" y="381.4808">DepartmentName</text><line style="stroke: #A80036; stroke-width: 1.5;" x1="6593.5" x2="6794.5" y1="389.1175" y2="389.1175"/><line style="stroke: #A80036; stroke-width: 1.5;" x1="6593.5" x2="6794.5" y1="397.1175" y2="397.1175"/><text fill="#000000" font-family="sans-serif" font-size="11" lengthAdjust="spacingAndGlyphs" textLength="191" x="6598.5" y="412.5364">apply (value : String) : DepartmentName</text><!--class com::edufuga::scala::entities::DepartmentTypes.DepartmentId--><rect fill="#FEFECE" filter="url(#fp5ha0c)" height="70.0234" style="stroke: #A80036; stroke-width: 1.5;" width="184" x="6831" y="348.93"/><ellipse cx="6881.25" cy="369.0238" fill="#ADD1B2" rx="11" ry="11" style="stroke: #A80036; stroke-width: 1.0;"/><path d="M6884.0156,364.8988 Q6884.1719,364.68 6884.3594,364.5706 Q6884.5469,364.4613 6884.7656,364.4613 Q6885.1406,364.4613 6885.375,364.7269 Q6885.6094,364.9769 6885.6094,365.5863 L6885.6094,367.0394 Q6885.6094,367.6488 6885.375,367.9144 Q6885.1406,368.18 6884.7656,368.18 Q6884.4219,368.18 6884.2188,367.9769 Q6884.0156,367.7894 6883.9063,367.2738 Q6883.8594,366.9144 6883.6719,366.7269 Q6883.3438,366.3519 6882.7344,366.1331 Q6882.125,365.9144 6881.5,365.9144 Q6880.7344,365.9144 6880.0938,366.2425 Q6879.4688,366.5706 6878.9688,367.3206 Q6878.4844,368.0706 6878.4844,369.1019 L6878.4844,370.1956 Q6878.4844,371.43 6879.375,372.2581 Q6880.2656,373.0706 6881.8594,373.0706 Q6882.7969,373.0706 6883.4531,372.8206 Q6883.8438,372.6644 6884.2656,372.2269 Q6884.5313,371.9613 6884.6719,371.8831 Q6884.8281,371.805 6885.0313,371.805 Q6885.3594,371.805 6885.6094,372.0706 Q6885.875,372.3206 6885.875,372.6644 Q6885.875,373.0081 6885.5313,373.4144 Q6885.0313,373.9925 6884.2344,374.3206 Q6883.1563,374.7738 6881.8594,374.7738 Q6880.3438,374.7738 6879.1406,374.1488 Q6878.1563,373.6488 6877.4688,372.5863 Q6876.7813,371.5081 6876.7813,370.2269 L6876.7813,369.0706 Q6876.7813,367.7425 6877.3906,366.6019 Q6878.0156,365.4456 6879.1094,364.8363 Q6880.2031,364.2113 6881.4375,364.2113 Q6882.1719,364.2113 6882.8125,364.3831 Q6883.4688,364.5394 6884.0156,364.8988 Z "/><text fill="#000000" font-family="sans-serif" font-size="12" font-style="italic" lengthAdjust="spacingAndGlyphs" textLength="48" x="6915.25" y="366.387">«object»</text><text fill="#000000" font-family="sans-serif" font-size="12" lengthAdjust="spacingAndGlyphs" textLength="75" x="6901.75" y="381.4808">DepartmentId</text><line style="stroke: #A80036; stroke-width: 1.5;" x1="6832" x2="7014" y1="389.1175" y2="389.1175"/><line style="stroke: #A80036; stroke-width: 1.5;" x1="6832" x2="7014" y1="397.1175" y2="397.1175"/><text fill="#000000" font-family="sans-serif" font-size="11" lengthAdjust="spacingAndGlyphs" textLength="172" x="6837" y="412.5364">apply (value : String) : DepartmentId</text><path d="M4369.01,204.01 C4306.32,246.99 4214.68,309.81 4158.32,348.45 " fill="none" style="stroke: #A80036; stroke-width: 1.0;"/><polygon fill="none" points="4364.97,198.3,4385.43,192.76,4372.89,209.85,4364.97,198.3" style="stroke: #A80036; stroke-width: 1.0;"/><text fill="#000000" font-family="sans-serif" font-size="13" lengthAdjust="spacingAndGlyphs" textLength="171" x="4283" y="277.4251">&lt;&lt;bind Id -&gt; DepartmentId &gt;&gt;</text><path d="M4358.4,169.58 C4218.18,191.56 3915.79,240.12 3662,288.93 C3567.12,307.18 3461.17,329.91 3377.36,348.45 " fill="none" style="stroke: #A80036; stroke-width: 1.0;"/><polygon fill="none" points="4357.15,162.69,4377.99,166.52,4359.31,176.53,4357.15,162.69" style="stroke: #A80036; stroke-width: 1.0;"/><text fill="#000000" font-family="sans-serif" font-size="13" lengthAdjust="spacingAndGlyphs" textLength="171" x="3789" y="277.4251">&lt;&lt;bind Id -&gt; DepartmentId &gt;&gt;</text><path d="M4515.85,168.38 C4664.66,189.38 4996.95,237.78 5275,288.93 C5372.36,306.84 5481.1,329.76 5566.71,348.48 " fill="none" style="stroke: #A80036; stroke-width: 1.0;"/><polygon fill="none" points="4515.16,175.35,4496.33,165.63,4517.11,161.48,4515.16,175.35" style="stroke: #A80036; stroke-width: 1.0;"/><text fill="#000000" font-family="sans-serif" font-size="13" lengthAdjust="spacingAndGlyphs" textLength="149" x="5231" y="277.4251">&lt;&lt;bind Id -&gt; ProductId &gt;&gt;</text><path d="M4513.96,193.8 C4604.18,236.45 4752.59,306.63 4841.05,348.45 " fill="none" style="stroke: #A80036; stroke-width: 1.0;"/><polygon fill="none" points="4510.99,200.14,4495.91,185.26,4516.98,187.48,4510.99,200.14" style="stroke: #A80036; stroke-width: 1.0;"/><text fill="#000000" font-family="sans-serif" font-size="13" lengthAdjust="spacingAndGlyphs" textLength="146" x="4690" y="277.4251">&lt;&lt;bind Id -&gt; ServiceId &gt;&gt;</text><path d="M2149.52,209.28 C2137.44,218.7 2123.99,227.31 2110,232.93 C1947.3,298.27 1465.72,187.09 1323,288.93 C1313.905,295.42 1306.8638,304.4094 1301.4163,314.2748 C1298.6925,319.2076 1296.3672,324.3593 1294.3828,329.5272 C1293.3906,332.1111 1292.4837,334.6991 1291.6548,337.2657 C1291.4475,337.9074 1291.2452,338.5477 1291.0476,339.1863 " fill="none" style="stroke: #A80036; stroke-width: 1.0;"/><ellipse cx="2154.7224" cy="204.9292" fill="#FFFFFF" rx="8" ry="8" style="stroke: #A80036; stroke-width: 1.0;"/><line style="stroke: #A80036; stroke-width: 1.0;" x1="2148.5747" x2="2160.87" y1="210.0485" y2="199.81"/><line style="stroke: #A80036; stroke-width: 1.0;" x1="2149.6031" x2="2159.8416" y1="198.7816" y2="211.0769"/><text fill="#000000" font-family="sans-serif" font-size="13" lengthAdjust="spacingAndGlyphs" textLength="66" x="1377" y="277.4251">«objectdef»</text><path d="M1761.15,231.75 C1760.1,232.16 1759.05,232.55 1758,232.93 C1700.14,253.68 694.87,218.88 652,262.93 C646.42,268.66 649.47,273.34 652,280.93 C653.41,285.15 656.42,284.78 658,288.93 C659.8088,293.675 661.2967,298.6494 662.5151,303.728 C662.5912,304.0454 662.6663,304.3632 662.7404,304.6814 " fill="none" style="stroke: #A80036; stroke-width: 1.0;"/><ellipse cx="1767.4297" cy="228.8497" fill="#FFFFFF" rx="8" ry="8" style="stroke: #A80036; stroke-width: 1.0;"/><line style="stroke: #A80036; stroke-width: 1.0;" x1="1760.1693" x2="1774.69" y1="232.2094" y2="225.49"/><line style="stroke: #A80036; stroke-width: 1.0;" x1="1764.07" x2="1770.7894" y1="221.5894" y2="236.11"/><text fill="#000000" font-family="sans-serif" font-size="13" lengthAdjust="spacingAndGlyphs" textLength="66" x="653" y="277.4251">«objectdef»</text><path d="M1970.37,222.2 C1964.19,226.4 1957.71,230.08 1951,232.93 C1830.93,284 868.04,194.49 778,288.93 C725.86,343.62 735.39,396.55 778,458.95 C815.615,514.04 885.0025,541.795 945.7738,555.7775 C976.1594,562.7688 1004.3909,566.3169 1025.4198,568.1172 C1035.9343,569.0173 1044.6481,569.4805 1050.9301,569.7187 C1051.7154,569.7485 1052.4627,569.7747 1053.1707,569.7979 C1053.3477,569.8037 1053.5222,569.8093 1053.6943,569.8147 " fill="none" style="stroke: #A80036; stroke-width: 1.0;"/><ellipse cx="1975.8094" cy="218.0589" fill="#FFFFFF" rx="8" ry="8" style="stroke: #A80036; stroke-width: 1.0;"/><line style="stroke: #A80036; stroke-width: 1.0;" x1="1969.4388" x2="1982.18" y1="222.8979" y2="213.22"/><line style="stroke: #A80036; stroke-width: 1.0;" x1="1970.9705" x2="1980.6483" y1="211.6883" y2="224.4295"/><text fill="#000000" font-family="sans-serif" font-size="13" lengthAdjust="spacingAndGlyphs" textLength="66" x="779" y="389.4351">«objectdef»</text><path d="M5918.51,202.43 C5932.61,214.22 5948.98,225.65 5966,232.93 C6060.68,273.43 6350.39,219.02 6426,288.93 C6429.8513,292.4913 6433.0423,296.5995 6435.6774,301.0663 C6436.3362,302.183 6436.9602,303.3221 6437.5511,304.4806 C6437.625,304.6254 6437.6984,304.7706 6437.7712,304.916 " fill="none" style="stroke: #A80036; stroke-width: 1.0;"/><ellipse cx="5913.3898" cy="197.9117" fill="#FFFFFF" rx="8" ry="8" style="stroke: #A80036; stroke-width: 1.0;"/><line style="stroke: #A80036; stroke-width: 1.0;" x1="5919.3896" x2="5907.39" y1="203.2034" y2="192.62"/><line style="stroke: #A80036; stroke-width: 1.0;" x1="5908.0981" x2="5918.6815" y1="203.9115" y2="191.9119"/><text fill="#000000" font-family="sans-serif" font-size="13" lengthAdjust="spacingAndGlyphs" textLength="66" x="6411" y="277.4251">«objectdef»</text><path d="M6164.55,156.92 C6384.8,157.95 6907.29,172.89 7031,288.93 C7034.825,292.5187 7037.9964,296.6477 7040.6171,301.1295 C7041.2723,302.2499 7041.8931,303.3924 7042.4811,304.554 " fill="none" style="stroke: #A80036; stroke-width: 1.0;"/><ellipse cx="6157.8" cy="156.8929" fill="#FFFFFF" rx="8" ry="8" style="stroke: #A80036; stroke-width: 1.0;"/><line style="stroke: #A80036; stroke-width: 1.0;" x1="6165.7999" x2="6149.8" y1="156.9157" y2="156.87"/><line style="stroke: #A80036; stroke-width: 1.0;" x1="6157.7771" x2="6157.8228" y1="164.8928" y2="148.8929"/><text fill="#000000" font-family="sans-serif" font-size="13" lengthAdjust="spacingAndGlyphs" textLength="66" x="7021" y="277.4251">«objectdef»</text><path d="M2716.85,191.66 C2688.44,231.96 2641.32,298.81 2610.97,341.85 " fill="none" style="stroke: #A80036; stroke-width: 1.0; stroke-dasharray: 7.0,7.0;"/><text fill="#000000" font-family="sans-serif" font-size="13" lengthAdjust="spacingAndGlyphs" textLength="77" x="2667" y="277.4251">«companion»</text></g></svg>