<?xml version="1.0" encoding="us-ascii" standalone="no"?><svg xmlns="http://www.w3.org/2000/svg" xmlns:xlink="http://www.w3.org/1999/xlink" contentStyleType="text/css" height="333px" preserveAspectRatio="none" style="width:418px;height:333px;background:#FFFFFF;" version="1.1" viewBox="0 0 418 333" width="418px" zoomAndPan="magnify"><defs/><g><text fill="#000000" font-family="sans-serif" font-size="14" font-weight="bold" lengthAdjust="spacing" textLength="66" x="169.25" y="22.9951">Untitled</text><!--class :Department--><a href="https://github.com/edufuga/LinkedDataScala/2024/3/linkeddata#Department" target="_top" title="https://github.com/edufuga/LinkedDataScala/2024/3/linkeddata#Department" xlink:actuate="onRequest" xlink:href="https://github.com/edufuga/LinkedDataScala/2024/3/linkeddata#Department" xlink:show="new" xlink:title="https://github.com/edufuga/LinkedDataScala/2024/3/linkeddata#Department" xlink:type="simple"><g id="elem_:Department"><rect codeLine="2" fill="#F1F1F1" height="48" id=":Department" rx="2.5" ry="2.5" style="stroke:#181818;stroke-width:0.5;" width="127" x="7" y="44.2969"/><ellipse cx="22" cy="60.2969" fill="#ADD1B2" rx="11" ry="11" style="stroke:#181818;stroke-width:1.0;"/><path d="M24.3438,55.9688 C23.4063,55.5313 22.8125,55.3906 21.9375,55.3906 C19.3125,55.3906 17.3125,57.4688 17.3125,60.1875 L17.3125,61.3125 C17.3125,63.8906 19.4219,65.7813 22.3125,65.7813 C23.5313,65.7813 24.6875,65.4844 25.4375,64.9375 C26.0156,64.5313 26.3438,64.0781 26.3438,63.6875 C26.3438,63.2344 25.9531,62.8438 25.4844,62.8438 C25.2656,62.8438 25.0625,62.9219 24.875,63.1094 C24.4219,63.5938 24.4219,63.5938 24.2344,63.6875 C23.8125,63.9531 23.125,64.0781 22.3594,64.0781 C20.3125,64.0781 19.0156,62.9844 19.0156,61.2813 L19.0156,60.1875 C19.0156,58.4063 20.2656,57.0938 22,57.0938 C22.5781,57.0938 23.1875,57.25 23.6563,57.5 C24.1406,57.7813 24.3125,58 24.4063,58.4063 C24.4688,58.8125 24.5,58.9375 24.6406,59.0625 C24.7813,59.2031 25.0156,59.3125 25.2344,59.3125 C25.5,59.3125 25.7656,59.1719 25.9375,58.9531 C26.0469,58.7969 26.0781,58.6094 26.0781,58.1875 L26.0781,56.7656 C26.0781,56.3281 26.0625,56.2031 25.9688,56.0469 C25.8125,55.7813 25.5313,55.6406 25.2344,55.6406 C24.9375,55.6406 24.7344,55.7344 24.5156,56.0469 L24.3438,55.9688 Z " fill="#000000"/><text fill="#000000" font-family="sans-serif" font-size="14" lengthAdjust="spacing" textLength="95" x="36" y="65.1436">:Department</text><line style="stroke:#181818;stroke-width:0.5;" x1="8" x2="133" y1="76.2969" y2="76.2969"/><line style="stroke:#181818;stroke-width:0.5;" x1="8" x2="133" y1="84.2969" y2="84.2969"/></g></a><!--class :Employee--><a href="https://github.com/edufuga/LinkedDataScala/2024/3/linkeddata#Employee" target="_top" title="https://github.com/edufuga/LinkedDataScala/2024/3/linkeddata#Employee" xlink:actuate="onRequest" xlink:href="https://github.com/edufuga/LinkedDataScala/2024/3/linkeddata#Employee" xlink:show="new" xlink:title="https://github.com/edufuga/LinkedDataScala/2024/3/linkeddata#Employee" xlink:type="simple"><g id="elem_:Employee"><rect codeLine="4" fill="#F1F1F1" height="48" id=":Employee" rx="2.5" ry="2.5" style="stroke:#181818;stroke-width:0.5;" width="109" x="169" y="44.2969"/><ellipse cx="184" cy="60.2969" fill="#ADD1B2" rx="11" ry="11" style="stroke:#181818;stroke-width:1.0;"/><path d="M186.3438,55.9688 C185.4063,55.5313 184.8125,55.3906 183.9375,55.3906 C181.3125,55.3906 179.3125,57.4688 179.3125,60.1875 L179.3125,61.3125 C179.3125,63.8906 181.4219,65.7813 184.3125,65.7813 C185.5313,65.7813 186.6875,65.4844 187.4375,64.9375 C188.0156,64.5313 188.3438,64.0781 188.3438,63.6875 C188.3438,63.2344 187.9531,62.8438 187.4844,62.8438 C187.2656,62.8438 187.0625,62.9219 186.875,63.1094 C186.4219,63.5938 186.4219,63.5938 186.2344,63.6875 C185.8125,63.9531 185.125,64.0781 184.3594,64.0781 C182.3125,64.0781 181.0156,62.9844 181.0156,61.2813 L181.0156,60.1875 C181.0156,58.4063 182.2656,57.0938 184,57.0938 C184.5781,57.0938 185.1875,57.25 185.6563,57.5 C186.1406,57.7813 186.3125,58 186.4063,58.4063 C186.4688,58.8125 186.5,58.9375 186.6406,59.0625 C186.7813,59.2031 187.0156,59.3125 187.2344,59.3125 C187.5,59.3125 187.7656,59.1719 187.9375,58.9531 C188.0469,58.7969 188.0781,58.6094 188.0781,58.1875 L188.0781,56.7656 C188.0781,56.3281 188.0625,56.2031 187.9688,56.0469 C187.8125,55.7813 187.5313,55.6406 187.2344,55.6406 C186.9375,55.6406 186.7344,55.7344 186.5156,56.0469 L186.3438,55.9688 Z " fill="#000000"/><text fill="#000000" font-family="sans-serif" font-size="14" lengthAdjust="spacing" textLength="77" x="198" y="65.1436">:Employee</text><line style="stroke:#181818;stroke-width:0.5;" x1="170" x2="277" y1="76.2969" y2="76.2969"/><line style="stroke:#181818;stroke-width:0.5;" x1="170" x2="277" y1="84.2969" y2="84.2969"/></g></a><!--class :Manager--><a href="https://github.com/edufuga/LinkedDataScala/2024/3/linkeddata#Manager" target="_top" title="https://github.com/edufuga/LinkedDataScala/2024/3/linkeddata#Manager" xlink:actuate="onRequest" xlink:href="https://github.com/edufuga/LinkedDataScala/2024/3/linkeddata#Manager" xlink:show="new" xlink:title="https://github.com/edufuga/LinkedDataScala/2024/3/linkeddata#Manager" xlink:type="simple"><g id="elem_:Manager"><rect codeLine="6" fill="#F1F1F1" height="48" id=":Manager" rx="2.5" ry="2.5" style="stroke:#181818;stroke-width:0.5;" width="98" x="313.5" y="44.2969"/><ellipse cx="328.5" cy="60.2969" fill="#ADD1B2" rx="11" ry="11" style="stroke:#181818;stroke-width:1.0;"/><path d="M330.8438,55.9688 C329.9063,55.5313 329.3125,55.3906 328.4375,55.3906 C325.8125,55.3906 323.8125,57.4688 323.8125,60.1875 L323.8125,61.3125 C323.8125,63.8906 325.9219,65.7813 328.8125,65.7813 C330.0313,65.7813 331.1875,65.4844 331.9375,64.9375 C332.5156,64.5313 332.8438,64.0781 332.8438,63.6875 C332.8438,63.2344 332.4531,62.8438 331.9844,62.8438 C331.7656,62.8438 331.5625,62.9219 331.375,63.1094 C330.9219,63.5938 330.9219,63.5938 330.7344,63.6875 C330.3125,63.9531 329.625,64.0781 328.8594,64.0781 C326.8125,64.0781 325.5156,62.9844 325.5156,61.2813 L325.5156,60.1875 C325.5156,58.4063 326.7656,57.0938 328.5,57.0938 C329.0781,57.0938 329.6875,57.25 330.1563,57.5 C330.6406,57.7813 330.8125,58 330.9063,58.4063 C330.9688,58.8125 331,58.9375 331.1406,59.0625 C331.2813,59.2031 331.5156,59.3125 331.7344,59.3125 C332,59.3125 332.2656,59.1719 332.4375,58.9531 C332.5469,58.7969 332.5781,58.6094 332.5781,58.1875 L332.5781,56.7656 C332.5781,56.3281 332.5625,56.2031 332.4688,56.0469 C332.3125,55.7813 332.0313,55.6406 331.7344,55.6406 C331.4375,55.6406 331.2344,55.7344 331.0156,56.0469 L330.8438,55.9688 Z " fill="#000000"/><text fill="#000000" font-family="sans-serif" font-size="14" lengthAdjust="spacing" textLength="66" x="342.5" y="65.1436">:Manager</text><line style="stroke:#181818;stroke-width:0.5;" x1="314.5" x2="410.5" y1="76.2969" y2="76.2969"/><line style="stroke:#181818;stroke-width:0.5;" x1="314.5" x2="410.5" y1="84.2969" y2="84.2969"/></g></a><!--class :Money--><a href="https://github.com/edufuga/LinkedDataScala/2024/3/linkeddata#Money" target="_top" title="https://github.com/edufuga/LinkedDataScala/2024/3/linkeddata#Money" xlink:actuate="onRequest" xlink:href="https://github.com/edufuga/LinkedDataScala/2024/3/linkeddata#Money" xlink:show="new" xlink:title="https://github.com/edufuga/LinkedDataScala/2024/3/linkeddata#Money" xlink:type="simple"><g id="elem_:Money"><rect codeLine="8" fill="#F1F1F1" height="48" id=":Money" rx="2.5" ry="2.5" style="stroke:#181818;stroke-width:0.5;" width="84" x="28.5" y="152.2969"/><ellipse cx="43.5" cy="168.2969" fill="#ADD1B2" rx="11" ry="11" style="stroke:#181818;stroke-width:1.0;"/><path d="M45.8438,163.9688 C44.9063,163.5313 44.3125,163.3906 43.4375,163.3906 C40.8125,163.3906 38.8125,165.4688 38.8125,168.1875 L38.8125,169.3125 C38.8125,171.8906 40.9219,173.7813 43.8125,173.7813 C45.0313,173.7813 46.1875,173.4844 46.9375,172.9375 C47.5156,172.5313 47.8438,172.0781 47.8438,171.6875 C47.8438,171.2344 47.4531,170.8438 46.9844,170.8438 C46.7656,170.8438 46.5625,170.9219 46.375,171.1094 C45.9219,171.5938 45.9219,171.5938 45.7344,171.6875 C45.3125,171.9531 44.625,172.0781 43.8594,172.0781 C41.8125,172.0781 40.5156,170.9844 40.5156,169.2813 L40.5156,168.1875 C40.5156,166.4063 41.7656,165.0938 43.5,165.0938 C44.0781,165.0938 44.6875,165.25 45.1563,165.5 C45.6406,165.7813 45.8125,166 45.9063,166.4063 C45.9688,166.8125 46,166.9375 46.1406,167.0625 C46.2813,167.2031 46.5156,167.3125 46.7344,167.3125 C47,167.3125 47.2656,167.1719 47.4375,166.9531 C47.5469,166.7969 47.5781,166.6094 47.5781,166.1875 L47.5781,164.7656 C47.5781,164.3281 47.5625,164.2031 47.4688,164.0469 C47.3125,163.7813 47.0313,163.6406 46.7344,163.6406 C46.4375,163.6406 46.2344,163.7344 46.0156,164.0469 L45.8438,163.9688 Z " fill="#000000"/><text fill="#000000" font-family="sans-serif" font-size="14" lengthAdjust="spacing" textLength="52" x="57.5" y="173.1436">:Money</text><line style="stroke:#181818;stroke-width:0.5;" x1="29.5" x2="111.5" y1="184.2969" y2="184.2969"/><line style="stroke:#181818;stroke-width:0.5;" x1="29.5" x2="111.5" y1="192.2969" y2="192.2969"/></g></a><!--class :Organisation--><a href="https://github.com/edufuga/LinkedDataScala/2024/3/linkeddata#Organisation" target="_top" title="https://github.com/edufuga/LinkedDataScala/2024/3/linkeddata#Organisation" xlink:actuate="onRequest" xlink:href="https://github.com/edufuga/LinkedDataScala/2024/3/linkeddata#Organisation" xlink:show="new" xlink:title="https://github.com/edufuga/LinkedDataScala/2024/3/linkeddata#Organisation" xlink:type="simple"><g id="elem_:Organisation"><rect codeLine="10" fill="#F1F1F1" height="48" id=":Organisation" rx="2.5" ry="2.5" style="stroke:#181818;stroke-width:0.5;" width="128" x="147.5" y="152.2969"/><ellipse cx="162.5" cy="168.2969" fill="#ADD1B2" rx="11" ry="11" style="stroke:#181818;stroke-width:1.0;"/><path d="M164.8438,163.9688 C163.9063,163.5313 163.3125,163.3906 162.4375,163.3906 C159.8125,163.3906 157.8125,165.4688 157.8125,168.1875 L157.8125,169.3125 C157.8125,171.8906 159.9219,173.7813 162.8125,173.7813 C164.0313,173.7813 165.1875,173.4844 165.9375,172.9375 C166.5156,172.5313 166.8438,172.0781 166.8438,171.6875 C166.8438,171.2344 166.4531,170.8438 165.9844,170.8438 C165.7656,170.8438 165.5625,170.9219 165.375,171.1094 C164.9219,171.5938 164.9219,171.5938 164.7344,171.6875 C164.3125,171.9531 163.625,172.0781 162.8594,172.0781 C160.8125,172.0781 159.5156,170.9844 159.5156,169.2813 L159.5156,168.1875 C159.5156,166.4063 160.7656,165.0938 162.5,165.0938 C163.0781,165.0938 163.6875,165.25 164.1563,165.5 C164.6406,165.7813 164.8125,166 164.9063,166.4063 C164.9688,166.8125 165,166.9375 165.1406,167.0625 C165.2813,167.2031 165.5156,167.3125 165.7344,167.3125 C166,167.3125 166.2656,167.1719 166.4375,166.9531 C166.5469,166.7969 166.5781,166.6094 166.5781,166.1875 L166.5781,164.7656 C166.5781,164.3281 166.5625,164.2031 166.4688,164.0469 C166.3125,163.7813 166.0313,163.6406 165.7344,163.6406 C165.4375,163.6406 165.2344,163.7344 165.0156,164.0469 L164.8438,163.9688 Z " fill="#000000"/><text fill="#000000" font-family="sans-serif" font-size="14" lengthAdjust="spacing" textLength="96" x="176.5" y="173.1436">:Organisation</text><line style="stroke:#181818;stroke-width:0.5;" x1="148.5" x2="274.5" y1="184.2969" y2="184.2969"/><line style="stroke:#181818;stroke-width:0.5;" x1="148.5" x2="274.5" y1="192.2969" y2="192.2969"/></g></a><!--class :Product--><a href="https://github.com/edufuga/LinkedDataScala/2024/3/linkeddata#Product" target="_top" title="https://github.com/edufuga/LinkedDataScala/2024/3/linkeddata#Product" xlink:actuate="onRequest" xlink:href="https://github.com/edufuga/LinkedDataScala/2024/3/linkeddata#Product" xlink:show="new" xlink:title="https://github.com/edufuga/LinkedDataScala/2024/3/linkeddata#Product" xlink:type="simple"><g id="elem_:Product"><rect codeLine="12" fill="#F1F1F1" height="48" id=":Product" rx="2.5" ry="2.5" style="stroke:#181818;stroke-width:0.5;" width="93" x="311" y="152.2969"/><ellipse cx="326" cy="168.2969" fill="#ADD1B2" rx="11" ry="11" style="stroke:#181818;stroke-width:1.0;"/><path d="M328.3438,163.9688 C327.4063,163.5313 326.8125,163.3906 325.9375,163.3906 C323.3125,163.3906 321.3125,165.4688 321.3125,168.1875 L321.3125,169.3125 C321.3125,171.8906 323.4219,173.7813 326.3125,173.7813 C327.5313,173.7813 328.6875,173.4844 329.4375,172.9375 C330.0156,172.5313 330.3438,172.0781 330.3438,171.6875 C330.3438,171.2344 329.9531,170.8438 329.4844,170.8438 C329.2656,170.8438 329.0625,170.9219 328.875,171.1094 C328.4219,171.5938 328.4219,171.5938 328.2344,171.6875 C327.8125,171.9531 327.125,172.0781 326.3594,172.0781 C324.3125,172.0781 323.0156,170.9844 323.0156,169.2813 L323.0156,168.1875 C323.0156,166.4063 324.2656,165.0938 326,165.0938 C326.5781,165.0938 327.1875,165.25 327.6563,165.5 C328.1406,165.7813 328.3125,166 328.4063,166.4063 C328.4688,166.8125 328.5,166.9375 328.6406,167.0625 C328.7813,167.2031 329.0156,167.3125 329.2344,167.3125 C329.5,167.3125 329.7656,167.1719 329.9375,166.9531 C330.0469,166.7969 330.0781,166.6094 330.0781,166.1875 L330.0781,164.7656 C330.0781,164.3281 330.0625,164.2031 329.9688,164.0469 C329.8125,163.7813 329.5313,163.6406 329.2344,163.6406 C328.9375,163.6406 328.7344,163.7344 328.5156,164.0469 L328.3438,163.9688 Z " fill="#000000"/><text fill="#000000" font-family="sans-serif" font-size="14" lengthAdjust="spacing" textLength="61" x="340" y="173.1436">:Product</text><line style="stroke:#181818;stroke-width:0.5;" x1="312" x2="403" y1="184.2969" y2="184.2969"/><line style="stroke:#181818;stroke-width:0.5;" x1="312" x2="403" y1="192.2969" y2="192.2969"/></g></a><!--class :Service--><a href="https://github.com/edufuga/LinkedDataScala/2024/3/linkeddata#Service" target="_top" title="https://github.com/edufuga/LinkedDataScala/2024/3/linkeddata#Service" xlink:actuate="onRequest" xlink:href="https://github.com/edufuga/LinkedDataScala/2024/3/linkeddata#Service" xlink:show="new" xlink:title="https://github.com/edufuga/LinkedDataScala/2024/3/linkeddata#Service" xlink:type="simple"><g id="elem_:Service"><rect codeLine="14" fill="#F1F1F1" height="48" id=":Service" rx="2.5" ry="2.5" style="stroke:#181818;stroke-width:0.5;" width="90" x="25.5" y="260.2969"/><ellipse cx="40.5" cy="276.2969" fill="#ADD1B2" rx="11" ry="11" style="stroke:#181818;stroke-width:1.0;"/><path d="M42.8438,271.9688 C41.9063,271.5313 41.3125,271.3906 40.4375,271.3906 C37.8125,271.3906 35.8125,273.4688 35.8125,276.1875 L35.8125,277.3125 C35.8125,279.8906 37.9219,281.7813 40.8125,281.7813 C42.0313,281.7813 43.1875,281.4844 43.9375,280.9375 C44.5156,280.5313 44.8438,280.0781 44.8438,279.6875 C44.8438,279.2344 44.4531,278.8438 43.9844,278.8438 C43.7656,278.8438 43.5625,278.9219 43.375,279.1094 C42.9219,279.5938 42.9219,279.5938 42.7344,279.6875 C42.3125,279.9531 41.625,280.0781 40.8594,280.0781 C38.8125,280.0781 37.5156,278.9844 37.5156,277.2813 L37.5156,276.1875 C37.5156,274.4063 38.7656,273.0938 40.5,273.0938 C41.0781,273.0938 41.6875,273.25 42.1563,273.5 C42.6406,273.7813 42.8125,274 42.9063,274.4063 C42.9688,274.8125 43,274.9375 43.1406,275.0625 C43.2813,275.2031 43.5156,275.3125 43.7344,275.3125 C44,275.3125 44.2656,275.1719 44.4375,274.9531 C44.5469,274.7969 44.5781,274.6094 44.5781,274.1875 L44.5781,272.7656 C44.5781,272.3281 44.5625,272.2031 44.4688,272.0469 C44.3125,271.7813 44.0313,271.6406 43.7344,271.6406 C43.4375,271.6406 43.2344,271.7344 43.0156,272.0469 L42.8438,271.9688 Z " fill="#000000"/><text fill="#000000" font-family="sans-serif" font-size="14" lengthAdjust="spacing" textLength="58" x="54.5" y="281.1436">:Service</text><line style="stroke:#181818;stroke-width:0.5;" x1="26.5" x2="114.5" y1="292.2969" y2="292.2969"/><line style="stroke:#181818;stroke-width:0.5;" x1="26.5" x2="114.5" y1="300.2969" y2="300.2969"/></g></a><text fill="#888888" font-family="sans-serif" font-size="10" lengthAdjust="spacing" textLength="74" x="48.75" y="323.5791">Generated by</text><a href="https://github.com/edmondchuc/ontogram" target="_top" title="https://github.com/edmondchuc/ontogram" xlink:actuate="onRequest" xlink:href="https://github.com/edmondchuc/ontogram" xlink:show="new" xlink:title="https://github.com/edmondchuc/ontogram" xlink:type="simple"><text fill="#0000FF" font-family="sans-serif" font-size="10" lengthAdjust="spacing" text-decoration="underline" textLength="230" x="125.75" y="323.5791">https://github.com/edmondchuc/ontogram</text></a><!--SRC=[fT8zQmCn383XFR_297jTaanPczAbfONGAToWs8hFn9OEdrmuGlvxSkNwWQ5Gy2GGvda7MRm4LEyauxIpXm1zh-QRBNQG92B9NEtthKZNRxHsNjfyk3CSDTfyp0xqiwSJsYq8x0m4qClxvLglTFXSszjwyKCrZJhFBj-DnzW57X2h2rzGuRy0WSDKpKzEgJFXK6-FIY6_9WVaUn3FL1tuZHMTjyGsc_e3JqwXxp1zU5D_tCcPT7FxHfZKaNaSJqYOGD2gm_1N9p9PqsQZcOHTWgZ-zwnfhW00]--></g></svg>